<?xml version="1.0" encoding="utf-8"?>
<!-- Generator: Adobe Illustrator 24.1.1, SVG Export Plug-In . SVG Version: 6.00 Build 0)  -->
<svg version="1.1" xmlns="http://www.w3.org/2000/svg" xmlns:xlink="http://www.w3.org/1999/xlink" x="0px" y="0px"
	 viewBox="0 0 400 400" style="enable-background:new 0 0 400 400;" xml:space="preserve">
<style type="text/css">
	.st0{fill:#3E5983;}
	.st1{fill:#E3BB94;}
	.st2{fill:#D4A87F;}
	.st3{fill:none;stroke:#B51A19;stroke-miterlimit:10;}
	.st4{fill:#17294B;}
	.st5{display:none;}
	.st6{fill:#B17F4A;}
	.st7{fill:none;stroke:#C84339;stroke-width:0.25;stroke-miterlimit:10;}
	.st8{fill:none;stroke:#1D355E;stroke-width:0.25;stroke-miterlimit:10;}
	.st9{fill:none;stroke:#D1B493;stroke-width:0.5;stroke-miterlimit:10;}
	.st10{fill:none;stroke:#000000;stroke-miterlimit:10;}
	.st11{fill:none;stroke:#D1B493;stroke-width:0.25;stroke-miterlimit:10;}
	.st12{clip-path:url(#SVGID_2_);fill:#1D355E;stroke:#1D355E;stroke-miterlimit:10;}
	.st13{clip-path:url(#SVGID_2_);}
	.st14{fill:#97C4EA;}
	.st15{fill:#BE1622;}
	.st16{clip-path:url(#SVGID_2_);fill:none;}
	.st17{fill:#9A1418;}
	.st18{fill:#701512;}
	.st19{fill:none;stroke:#701512;stroke-width:0.5;stroke-miterlimit:10;}
	.st20{clip-path:url(#SVGID_4_);}
	.st21{fill:#344A6D;}
	.st22{fill:#1D355E;}
	.st23{fill:none;stroke:#1D355E;stroke-width:0.5;stroke-miterlimit:10;}
	.st24{clip-path:url(#SVGID_6_);}
	.st25{fill:#FFFFFF;}
	.st26{fill:#B26965;}
	.st27{fill:#668AB2;}
	.st28{fill:#567495;}
	.st29{fill:none;stroke:#67779B;stroke-width:0.5;stroke-miterlimit:10;}
	.st30{fill:none;stroke:#000000;stroke-width:0.5;stroke-miterlimit:10;}
	.st31{fill:#AF5E43;}
	.st32{fill:#A2151B;}
	.st33{fill:none;stroke:#EED9C6;stroke-width:0.5;stroke-miterlimit:10;}
	.st34{fill:#192E53;}
	.st35{fill:none;stroke:#000000;stroke-width:0.25;stroke-miterlimit:10;}
	.st36{fill:none;stroke:#701512;stroke-width:0.25;stroke-miterlimit:10;}
	.st37{fill:#C18463;}
	.st38{fill:#4D6885;}
	.st39{fill:#B51A19;}
	.st40{fill:none;stroke:#C84339;stroke-miterlimit:10;}
	.st41{fill:#366592;}
	.st42{fill:#1D355E;stroke:#1D355E;stroke-width:0.5;stroke-miterlimit:10;}
	.st43{fill:#1B3056;}
	.st44{fill:#2D4362;}
	.st45{fill:#2D2E83;}
	.st46{clip-path:url(#SVGID_8_);}
	.st47{fill:none;stroke:#3E5983;stroke-miterlimit:10;}
	.st48{fill:none;stroke:#C84339;stroke-width:0.5;stroke-miterlimit:10;}
	.st49{fill:#006633;}
	.st50{fill:none;stroke:#397545;stroke-width:0.5;stroke-miterlimit:10;}
	.st51{fill:#AA372E;}
	.st52{fill:#3E5983;stroke:#3E5983;stroke-width:0.5;stroke-miterlimit:10;}
	.st53{fill:#142136;}
	.st54{fill:none;stroke:#432918;stroke-width:0.5;stroke-miterlimit:10;}
	.st55{fill:none;stroke:#39668D;stroke-width:0.5;stroke-miterlimit:10;}
	.st56{fill:#00517B;}
	.st57{fill:#A91F1A;}
	.st58{fill:none;stroke:#B03425;stroke-width:0.5;stroke-miterlimit:10;}
	.st59{fill:#DADADA;}
	.st60{fill:#E2B759;}
	.st61{fill:#931C14;}
	.st62{fill:#3E4461;}
	.st63{fill:#29235C;}
	.st64{fill:#B71721;}
	.st65{fill:#A9161E;}
	.st66{fill:#A9171E;}
	.st67{fill:none;stroke:#EED9C6;stroke-width:0.25;stroke-miterlimit:10;}
	.st68{fill:#9C1915;}
	.st69{fill:none;stroke:#9C1915;stroke-width:0.25;stroke-miterlimit:10;}
	.st70{fill:#CA9E67;}
	.st71{fill:none;stroke:#1D355E;stroke-miterlimit:10;}
	.st72{clip-path:url(#SVGID_10_);}
	.st73{fill:#706F6F;}
	.st74{fill:none;stroke:#9F9F9F;stroke-width:0.5;stroke-miterlimit:10;}
	.st75{fill:#CBBBA0;}
	.st76{fill:none;stroke:#EAD9C5;stroke-width:0.5;stroke-miterlimit:10;}
	.st77{fill:none;stroke:#F1EDE6;stroke-width:0.5;stroke-miterlimit:10;}
	.st78{fill:#7B94B0;}
	.st79{clip-path:url(#SVGID_12_);}
	.st80{fill:#86ACCD;}
	.st81{fill:none;stroke:#B6C2D9;stroke-width:0.5;stroke-miterlimit:10;}
	.st82{fill:#A0151A;}
	.st83{clip-path:url(#SVGID_14_);}
	.st84{fill:#395278;}
	.st85{fill:#AA151D;}
	.st86{fill:#577596;}
	.st87{fill:#DCE2D2;}
	.st88{fill:#A49E83;}
	.st89{fill:#D0D7C8;}
	.st90{fill:#A48A7B;}
	.st91{fill:#CB8A5B;}
	.st92{clip-path:url(#SVGID_16_);}
	.st93{fill:#13203D;}
	.st94{fill:#3E546C;stroke:#3E546C;stroke-width:0.25;stroke-miterlimit:10;}
	.st95{fill:#961418;}
	.st96{fill:#182C4F;}
	.st97{fill:#547192;}
	.st98{fill:#48617D;}
	.st99{fill:#233343;}
	.st100{fill:#354D70;}
	.st101{opacity:0.14;fill:#97C4EA;stroke:#97C4EA;stroke-width:0.5;stroke-miterlimit:10;}
	.st102{fill:#101C36;}
	.st103{fill:#0C162D;}
	.st104{clip-path:url(#SVGID_18_);}
	.st105{fill:#9E151A;}
	.st106{clip-path:url(#SVGID_20_);}
	.st107{clip-path:url(#SVGID_22_);}
	.st108{clip-path:url(#SVGID_24_);}
	.st109{fill:#AD151E;}
	.st110{fill:#F39200;}
	.st111{fill:#FCEA10;}
	.st112{fill:#364E72;}
	.st113{stroke:#000000;stroke-width:0.25;stroke-miterlimit:10;}
	.st114{fill:#1D355E;stroke:#1D355E;stroke-width:0.25;stroke-miterlimit:10;}
	.st115{fill:#FFFFFF;stroke:#1D355E;stroke-width:3;stroke-miterlimit:10;}
	.st116{fill:#97C4EA;stroke:#97C4EA;stroke-width:0.25;stroke-miterlimit:10;}
	.st117{fill:#B0161E;}
	.st118{fill:#A3151B;}
	.st119{fill:#EFCAA6;}
	.st120{fill:#B7905E;}
	.st121{fill:none;}
	.st122{fill:#8B1314;}
	.st123{fill:#587698;}
	.st124{fill:#C13C3D;}
	.st125{clip-path:url(#SVGID_26_);}
	.st126{clip-path:url(#SVGID_26_);fill:#BE1622;stroke:#BE1622;stroke-width:0.5;stroke-miterlimit:10;}
	.st127{clip-path:url(#SVGID_26_);fill:#FFFFFF;stroke:#FFFFFF;stroke-width:0.5;stroke-miterlimit:10;}
	.st128{fill:#97C4EA;stroke:#97C4EA;stroke-width:0.5;stroke-miterlimit:10;}
	.st129{fill:#008D36;stroke:#008D36;stroke-width:0.5;stroke-miterlimit:10;}
	.st130{clip-path:url(#SVGID_28_);}
	.st131{clip-path:url(#SVGID_28_);fill:#3E5983;stroke:#3E5983;stroke-width:0.5;stroke-miterlimit:10;}
	.st132{fill:#385176;}
	.st133{clip-path:url(#SVGID_28_);fill:none;stroke:#BE1622;stroke-width:3;stroke-miterlimit:10;}
	.st134{fill:none;stroke:#4B5E82;stroke-miterlimit:10;}
	.st135{fill:#A8151C;}
	.st136{fill:#006633;stroke:#006633;stroke-width:0.5;stroke-miterlimit:10;}
	.st137{fill:#7D4E24;}
	.st138{fill:#69421C;}
	.st139{fill:#683C11;}
	.st140{fill:none;stroke:#683C11;stroke-width:0.25;stroke-miterlimit:10;}
	.st141{fill:#3E5983;stroke:#3E5983;stroke-miterlimit:10;}
	.st142{fill:#F39200;stroke:#F39200;stroke-miterlimit:10;}
	.st143{fill:#97C4EA;stroke:#97C4EA;stroke-miterlimit:10;}
	.st144{fill:#BE1622;stroke:#BE1622;stroke-miterlimit:10;}
	.st145{fill:#BE1622;stroke:#BE1622;stroke-width:0.5;stroke-miterlimit:10;}
	.st146{fill:none;stroke:#F8F8F8;stroke-width:0.5;stroke-miterlimit:10;}
	.st147{clip-path:url(#SVGID_30_);}
	.st148{fill:#AB151D;}
	.st149{fill:#314769;}
	.st150{clip-path:url(#SVGID_32_);fill:#1D355E;stroke:#1D355E;stroke-width:0.5;stroke-miterlimit:10;}
	.st151{clip-path:url(#SVGID_32_);}
	.st152{fill:#9D1519;}
	.st153{fill:none;stroke:#B6C2D9;stroke-miterlimit:10;}
	.st154{fill:none;stroke:#EBF3FC;stroke-miterlimit:10;}
	.st155{fill:none;stroke:#C3D3E4;stroke-miterlimit:10;}
	.st156{fill:#7EA2C1;}
	.st157{clip-path:url(#SVGID_34_);}
	.st158{fill:#A5151B;}
	.st159{clip-path:url(#SVGID_36_);}
	.st160{opacity:0.51;}
	.st161{fill:#3E5983;stroke:#1D355E;stroke-width:0.5;stroke-miterlimit:10;}
	.st162{fill:#9B1419;}
	.st163{fill:#374F74;}
</style>
<g id="Capa_14">
</g>
<g id="Capa_22">
</g>
<g id="Capa_19">
</g>
<g id="Capa_18">
</g>
<g id="Capa_17">
</g>
<g id="Capa_11">
</g>
<g id="Capa_10">
</g>
<g id="Capa_20">
</g>
<g id="Capa_13">
</g>
<g id="Capa_2">
</g>
<g id="Capa_7">
</g>
<g id="Capa_3">
</g>
<g id="Capa_16">
</g>
<g id="Capa_24">
</g>
<g id="Capa_23">
</g>
<g id="Capa_21" class="st5">
</g>
<g id="Capa_4">
</g>
<g id="Capa_12">
</g>
<g id="Capa_26">
</g>
<g id="Capa_25">
</g>
<g id="Capa_27">
	<g>
		<g>
			<path class="st15" d="M94.12,118.95c-0.44,16.16,0.83,42.98,12.56,73.03c8.46,21.68,21.6,55.34,57.08,75.51
				c42.31,24.05,86.17,11.73,95.58,9.09c8.75-2.46,32.53-10.12,53.65-29.75c54.12-50.3,40.85-132.74,39.43-140.77l-61.22,8.97
				l12.05,38.73l-11.41,29.72l14.49,29.93L282.83,245l8.8-35.6l-15.36-14.98L291.49,159l-29.63-45.48L94.12,118.95z"/>
			<g>
				<g>
					<g>
						<g>
							<path class="st15" d="M230.47,116.08c-0.09,0.04-0.15,0.08-0.18,0.14C230.45,116.16,230.49,116.12,230.47,116.08z"/>
							<path class="st15" d="M286.11,155.13l-0.56-0.74C285.89,154.89,286.03,155.07,286.11,155.13z"/>
							<path class="st15" d="M182.81,117.27c0.07-0.01,0.07-0.02,0.11-0.03c-0.74,0.02-1.73,0.04-3.35,0.09L182.81,117.27z"/>
							<path class="st15" d="M297.34,187.22l0.47,0.96C297.6,187.75,297.48,187.46,297.34,187.22z"/>
							<path class="st15" d="M288.29,211.61c-0.02,0.32-0.13,0.83-0.23,1.33C288.22,212.32,288.33,211.81,288.29,211.61z"/>
							<path class="st15" d="M157.55,115.26l1.36,0.15C158.88,115.33,158.4,115.26,157.55,115.26z"/>
							<path class="st15" d="M109.24,117.6c0.04,0.01,0.05,0.02,0.13,0.04C109.44,117.62,109.36,117.61,109.24,117.6z"/>
							<path class="st15" d="M128.15,117.75c0.41-0.04,0.88-0.08,1.35-0.13C128.93,117.65,128.2,117.67,128.15,117.75z"/>
							<path class="st15" d="M130.15,117.56c-0.21,0.02-0.43,0.05-0.64,0.07C129.87,117.61,130.16,117.59,130.15,117.56z"/>
							<path class="st15" d="M96.46,126.5c-0.03-1.37-0.14-2.55-0.27-3.79C96.29,123.97,96.35,125.24,96.46,126.5z"/>
							<path class="st15" d="M350.66,119.86l-0.1-0.29C350.61,119.85,350.64,119.89,350.66,119.86z"/>
							<path class="st15" d="M94.79,124.79l0.04-0.98C94.8,124.17,94.79,124.49,94.79,124.79z"/>
							<path class="st15" d="M183.13,113.93c1.39-0.23,4.26-0.1,4.23-0.28C185.88,113.72,183.78,113.65,183.13,113.93z"/>
							<path class="st15" d="M357.91,152.27l-0.06,0.94C357.87,152.76,357.89,152.48,357.91,152.27z"/>
							<path class="st15" d="M94.79,124.79l-0.04,1.14c0.03-0.1,0.06-0.22,0.09-0.34C94.81,125.33,94.8,125.07,94.79,124.79z"/>
							<path class="st15" d="M294.04,257.06c0.02-0.01,0.02-0.02,0.04-0.03c0.09-0.07,0.15-0.12,0.25-0.2L294.04,257.06z"/>
							<path class="st15" d="M286.82,261.06c0.5-0.29,0.96-0.6,1.49-0.93C287.5,260.58,287.1,260.86,286.82,261.06z"/>
							<path class="st15" d="M96.2,122.71c-0.05-0.72-0.08-1.44-0.11-2.17C96.09,121.33,96.13,122.03,96.2,122.71z"/>
							<path class="st15" d="M200.9,276.87c0.28,0.04,0.55,0.07,0.81,0.11C201.36,276.92,201.1,276.89,200.9,276.87z"/>
							<path class="st15" d="M287.3,208.81c-0.14-0.15-0.34-0.37-0.5-0.55C286.71,208.24,286.73,208.29,287.3,208.81z"/>
							<path class="st15" d="M294.68,225.09l0.01-0.02l0,0C294.68,225.08,294.68,225.09,294.68,225.09z"/>
							<path class="st15" d="M293.19,227.48c0.16-0.14,1.17-1.72,1.49-2.39c-0.32,0.43-0.62,0.85-0.92,1.3
								c-0.07,0.12-0.15,0.23-0.22,0.35c-0.08,0.13-0.16,0.25-0.17,0.29C293.31,227.18,293.25,227.33,293.19,227.48z"/>
							<path class="st15" d="M299.08,219.34c-0.09,0.1-0.15,0.18-0.26,0.3C298.92,219.53,299,219.44,299.08,219.34z"/>
							<path class="st15" d="M293.44,207.47c-0.01,0-0.02,0-0.02,0.01c0.03,0.02,0.05,0.03,0.06,0.04L293.44,207.47z"/>
							<path class="st15" d="M291.23,222.17c-0.09,0.22-0.2,0.53-0.3,0.88C291.01,222.84,291.12,222.55,291.23,222.17z"/>
							<path class="st15" d="M293.16,192.67c0.01,0.01,0.01,0.01,0.01,0.01c-0.02-0.03-0.02-0.03-0.03-0.06
								C293.14,192.64,293.15,192.65,293.16,192.67z"/>
							<path class="st15" d="M335.62,104.3c-6.28,1-13.49,2.16-20.69,3.31c-3.6,0.57-7.2,1.13-10.67,1.68
								c-1.74,0.26-3.45,0.52-5.11,0.77c-2.04,0.29-4.02,0.58-5.93,0.85c-1.93,0.43-4.13,0.85-6.58,1.27
								c1.05,3.2,2.27,6.9,3.49,10.61l-0.36,0.56l1.15,3.15c0.26,1.35-0.86-2.43-0.32-0.07l0.68,1.11c-0.1,0.31,2.44,8.26,0.42,3
								l3.87,12.44c0.84,2.75,0.91,1.48,1.73,4.56c0.05,0.66-0.44-1.06-0.54-0.76c0.5,1.86,0.97,3.38,1.42,4.7
								c0.23,0.66,0.45,1.27,0.66,1.84c0.15,0.41,0.11,0.24,0.15,0.29c0.03,0.01,0.05,0.02,0.08,0.04c0.03,0.02,0.06,0.06,0.08,0.1
								c0.04-0.05-0.04,0.2-0.09,0.39l-0.16,0.58c-0.21,0.78-0.43,1.57-0.69,2.41c-0.51,1.68-1.16,3.58-2.18,6.04l0.21-0.73
								c-0.21,0.73-0.58,1.77-0.88,2.63s-0.56,1.55-0.53,1.58c0.89-0.88,0.31-1.59,1.57-4.03c0.32,0.38-1,3.25-0.63,3.2
								c-0.89,1.89-1.1,3.13-1.73,4.83c-1.36,2.8-2.78,7.02-3.94,9.08c-0.05,0.2-0.11,0.41-0.16,0.62
								c-0.06,0.22-0.08,0.38-0.21,0.82c-0.21,0.73-0.45,1.53-0.71,2.43c0.4,0.69,0.82,1.44,1.26,2.28c0.16,0.3,0.33,0.61,0.51,0.94
								c0.15,0.3,0.31,0.61,0.48,0.94c0.71,2.25-0.53-0.36,0.74,2.57l0.45,0.35c1.1,2.37,0.86,2.03,0.71,2
								c1.21,2.52,1.32,1.94,2.71,5.16l-1.07-1.65c1.22,2.29,1.64,3.26,3.19,6.52c-0.17-0.01-0.79-1.32-1.21-2.29
								c0.52,1.93,1.61,2.95,2.03,3.92c-0.03-0.32-1.08-2.59-0.32-1.6c0.74,1.63,1.97,3.28,2.26,4.56l-1.07-1.65
								c1.8,3.28,1.15,1.66,2.93,5.56c-0.12-0.2-0.13-0.07-0.21-0.13c0.15,0.24,0.31,0.49,0.46,0.75c0.07,0.12,0.14,0.24,0.21,0.37
								l0.11,0.17c0.14,0.24,0.27,0.51,0.4,0.78c-0.33,0.4-0.68,0.83-1.04,1.28c-0.67,0.85-1.37,1.73-2.07,2.67l0.4-0.65
								c-0.9,1.35-1.25,2.2-1.78,2.89c1.48-1.75,1.17-1.2,1.48-1.22c-2.14,2.18-2.37,3.99-5.51,7.8c-0.07-0.15,0.5-1.21,1.43-2.21
								c0.67-1.61,0.5-1.99,2.13-4.52c-1.04,1.56-2.3,3.36-2.17,2.88l-0.03,0.71c-0.68,0.91-1.22,1.62-1.73,2.3
								c-0.09,0.54,1.7-1.59,0.26,0.61c-1.65,2.44-1.29,1.05-1.37,1.46c-1.16,1.82-0.34,1.17-1.73,2.82
								c0.14-0.24,0.39-0.69,0.51-0.79c-0.49,0.52-1.05,1.31-1.53,1.92c-0.48,0.6-0.84,0.99-0.73,0.45
								c0.21-0.47,0.35-0.88,0.58-1.13l-0.06,0.2c1.01-1.93-0.73,1.14-0.12-0.4c-0.16,0.65-1.11,1.83-1.44,2.19l-0.34,0.95
								c-2.9,5.17,0.08-0.5-0.11-0.58c0.1-0.28,0.17-0.52,0.21-0.73c-0.04-0.25-0.1-0.08-0.2,0.22c-0.09,0.28-0.21,0.67-0.3,0.62
								c0.18-0.62,0.41-1.25,0.61-1.8c0.2-0.57,0.35-1.04,0.41-1.56c0.28-0.67,0.68-1.63,1.15-2.15c-0.03-0.16,0.13-0.63,0.23-1
								c0.05-0.19,0.1-0.36,0.11-0.51c0.01-0.08,0.01-0.15,0-0.21c0-0.04-0.01-0.04-0.01-0.12c0.01-0.1,0.01-0.2,0.01-0.28
								c-0.03,0.1-0.07,0.2-0.1,0.3l-0.04,0.09c-0.02,0.06-0.04,0.11-0.07,0.17c-0.04,0.11-0.06,0.2-0.08,0.29
								c-0.03,0.17-0.02,0.29-0.02,0.41c0,0.26,0.03,0.37-0.43,1.32c-0.12,0.05-0.24,0.07-0.34,0.06c0.33-1.28,0.31-1.86,1.17-4.83
								c-0.16,0.4-0.29,0.57-0.29,0.29c0.94-4.3,0.93-5.61,2.06-9.75c0.42-0.48-0.23,1.95-0.65,3.73c0.45-1.31,0.62-2.01,0.83-2.9
								c0.1-0.44,0.22-0.94,0.37-1.58c0.24-0.93,0.53-2.07,0.91-3.58c0.18-0.21-0.1,0.92-0.42,2.19c-0.08,0.31-0.15,0.62-0.23,0.93
								c-0.04,0.2-0.09,0.39-0.13,0.56c-0.07,0.35-0.11,0.64-0.08,0.77l1.2-5.14l-1.12-1.07c0.04,0.01,0.03-0.02,0.05-0.02
								c-0.3-0.15-0.7-0.46-1.19-0.91c-0.22-0.21-0.46-0.45-0.73-0.71c-0.18-0.18-0.37-0.38-0.58-0.6c-0.81-0.86-1.8-1.94-2.88-2.91
								c-2.46-2.4-3.98-3.68-5.25-4.67c-1.22-0.92-2.16-1.62-3.61-2.7c-0.35-0.51-0.34-0.65-0.07-0.53c0.5,0.75,0.46,0.5,0.95,0.83
								l-0.33-0.32l-0.16-0.17c-0.1-0.12-0.2-0.23-0.29-0.35c-0.17-0.23-0.29-0.43-0.33-0.57c0.29-0.36,0.49-0.44,0.5-0.24
								c0.2-0.63,0.11-0.55-0.04-0.36c-0.14,0.18-0.34,0.49-0.21,0.02l1.7-3.89c-0.44,0.46-1.18,2.08-0.3-0.39
								c0.82-2.05,1.28-3.01,2.43-5.65c-0.07,0.43,0.66-0.7-0.2,1.28c0.63-1.25,1.49-3.24,1.63-4.1c-1.43,2.82,1.87-4.83,0.63-2.8
								l1.43-2.82c-0.29,0.66-0.19,0.79-0.64,1.75c0.66-0.69,0.93-2.41,1.34-3.43c0.5-1,1.66-3.63,1.87-3.8
								c0.31-0.95,1.34-3.16,1.67-3.51c0.53-1.39-0.15-0.2-0.08-0.63l2.21-5.08c0.33-0.31,1.15-0.92,0.74,0.21
								c0.36-0.97,0.44-1.38,0.47-1.66c-0.26-0.26-0.46-0.42-0.78-0.8c-0.16-0.19-0.35-0.44-0.6-0.79c-0.12-0.17-0.26-0.37-0.41-0.6
								c-0.14-0.21-0.29-0.44-0.47-0.71c1.2,1.19-1.85-3.34-0.19-1.56c-0.68-1.52-3.26-5.47-4.75-7.59
								c-1.11-1.19,1.4,2.44,1.06,2.46c-4.06-6.05-4.98-5.99-7.78-10.55l0.69,1.21c-1.96-2.71-1.72-2.41-2.99-3.91
								c0.8,0.58-1.26-3.7-4.32-8.25c-0.4-0.29,1.39,2.76,0.66,2.16l-2.03-3.02c-0.12-0.24,0.15,0.07,0.44,0.44
								c-1.89-2.67-2.92-5.34-3.79-5.9l-1.37-3.06l0.53,1.22c-0.4-0.28-2.44-3.32-2.91-3.92c-0.22-0.31-0.43-0.59-0.62-0.86
								c-0.25-0.36-0.48-0.7-0.7-1.02c-0.44-0.65-0.81-1.22-1.13-1.73c-0.97,0.02-1.78,0.01-2.57-0.01l-0.59-0.02l-0.44-0.03
								c-0.29-0.02-0.58-0.04-0.88-0.07c0.65,0.13,2.28,0.41-0.65,0.56c0.01-0.58-6.17-0.02-6.09-0.32
								c-1.19,0.05-3.3-0.07-3.43,0.18l0.19-0.37c-0.26,0.51-4.59,0.63-7.89,0.83c0.73-0.71-3.64,0.17-5.13-0.41
								c-0.61,0.49-5.87,0.37-6.45,0.79c-2.55,0.1-2.31-0.34-2.96-0.46l-1.18,0.21c-1.29-0.18-6.08-0.06-8.93-0.11l-2.64,0.5
								l-0.99-0.16c-0.42,0.12-2.62,0.25-1.25,0.36l-1.43,0.02c-0.1,0.45-2,0.19-4.87,0.47c-0.66-0.05-0.49-0.16,0.13-0.24
								c-1.43,0.04-0.82-0.21-1.61-0.33c1.02,0.08-5.12,0.97-1.26,1.05c0.27,0.17-1.97,0.38-3.38,0.35l-0.87-0.38l-1.67,0.48
								c-2.2,0.13-3.15-0.1-4.93-0.09c1.82-0.08,4.03-0.91-0.68-0.74c2.47-0.13,3.68-0.4,4.96-0.52c-0.98,0.02-1.46-0.01,0.05-0.23
								c-3.68,0.24-1.22,0.29-4.86,0.46c0.19-0.37-0.83-0.45-4.02-0.47l2.39,0.19c-0.11,0.05-0.27,0.08-0.45,0.11
								c0.9,0.01,1.16,0.06,1.36,0.19c-0.72,0.02-4.21,0.58-4.82,0.38c3.68,0.44-6.38,0.64-4.03,0.91
								c-0.41,0.12-2.96,0.22-3.23,0.05c3.04-0.37-2.31-0.34-1.82-0.61c-1.13,0.14,2.4,0.19,0.87,0.38
								c-1.81,0.08-3.15-0.1-4.17-0.18l0.75-0.09l-2.81-0.07c-0.46,0.19,2.72,0.22,0.14,0.4c-0.68-0.05-3.26,0.12-3.19-0.02
								c1.22-0.29,0.32-0.59,2.52-0.72c-1.83,0.08-7.63,0.31-5.27,0.58l-2.18,0.06c1.37,0.11,5.21,0.26,0.84,0.45l0.04-0.07
								l-3.03,0.37l-1.33-0.14c0.04,0.09-0.44,0.19-1.56,0.22c-0.3-0.1-1.36-0.11-1.28-0.26c-3.27,0.12-3,0.3-3.42,0.42
								c-1.83,0.08-2.51,0.03-1.67-0.21c-2.5,0.03-6.87,0.22-8.58,0.08c-3.34,0.27,0.69,0.05-1.26,0.36
								c-2.92-0.54-11.07,0.11-16.54,0.37c1.5,0.5-1.49,0.11-2.48,0.65c1.17-0.21-5.2-0.26-0.42-0.57l-2.92,0.15
								c-2-0.24,4.82-0.38,1.79-0.7c-3.27,0.12-5.4,0.8-9.26,0.72c1.28-0.43-2.96,0.22-2.02-0.24c0.8-0.17,1.87-0.16,2.96-0.22
								l-0.68-0.05c-7.18,0.12-2.06,0.53-5.81,0.92c-4.37,0.19-3.46-0.2-3.72-0.37c-0.68-0.05-2.88,0.08-4.03,0.22
								c2.66-0.32,4.94,0.09,3.72,0.37c-1.94-0.38-6.49,0.17-7.67,0.39c6.26,0.27,4.33-0.12,10.21,0.2c0.8-0.17,0.65-0.56,4.18-0.51
								c-2.2,0.27,0.16,0.22,0.78,0.26c-0.68-0.21,2.44-0.17,3.51-0.3c0.98,0.16-2.09,0.6,1.48,0.58l0.65-0.56
								c1.4,0.04-0.58,0.41,2.38,0.19c-1.59,0.33,0.5,0.42-3.52,0.64c4.81,0.31,7.35-0.49,11.07-0.8c-0.38,0.05-0.42,0.12-0.79,0.17
								c0.79-0.17,2.24-0.21,3.34-0.27c2.46,0.04-1.94,0.31-1.29,0.43l3.98-0.14c0.08,0.02,0.1,0.02,0.1,0.04
								c1.04-0.11,2.04-0.19,2.41-0.07c-1.18,0.21-1.64,0.41-2.43,0.57l4.17-0.51c-0.45,0.19,3.46,0.2,0.49,0.42l6.19-0.27
								l0.53,0.35c1.48-0.11,1.52-0.19-0.25-0.17c2.12,0.02,9.36-0.94,8.27-0.19c4.85-0.46,6.61-0.39,12.48-0.77
								c-4.51,0.48,5.2,0.26,0.41,0.57c2.81,0.07,3.38-0.34,5.59-0.48c2.08,0.09,1.17,0.48-1.07,0.68l2.63-0.25l-0.05,0.07
								l2.28-0.28c2.43,0.12,0.52,0.35,3.03,0.32l0.54-0.34l1.7,0.13c-0.64-0.13,0.84-0.24,2.66-0.32l-0.04,0.07l2.21-0.13
								c-2.18,0.27,2.02,0,1.02,0.27c1.89-0.04,1.93-0.05,5.34-0.22l-0.61-0.2c4.45-0.34,0.2,0.32,3.8,0.22l-0.23-0.25
								c5.2,0.26,8.8-0.53,12.64-0.37c-2.2,0.13-1.63,0.41-1.59,0.33c3.3-0.2,8.69-0.3,12.1-0.72c1.26,0.33,1.56,0.43,5.08,0.48
								c2.55-0.1,2.93-0.15,3.76-0.39c2.48,0.06,7.11-0.3,7.24-0.04c0.57-0.23,2.23-0.03,3.58-0.25l0.29,0.1l-0.22-0.25
								c4.41,0.43,7.4-0.56,11.85-0.21l-0.76,0.09l1.86-0.16c0.3,0.1-0.46,0.19-0.54,0.34l8.66-0.23l-1.71-0.14
								c1.82-0.08,3.04-0.37,5.13-0.28c-1.66,0.24-1.06,0.23,0.06,0.19c0.44-0.01,0.99-0.03,1.47-0.05c0.37,0,0.67,0.01,0.77,0.07
								c0.02,0.05,0.03,0.08,0.03,0.1l-0.05-0.06l-0.99,0.12c0.47-0.02,0.78-0.04,0.95-0.06c0.26,0.35,0.28,0.28,0.34,0.06
								c0.3,0.41,0.46,0.7,0.58,0.96c0.19,0.37,0.3,0.63,0.4,0.88c0.21,0.5,0.42,0.96,1.36,2.16l-1.17-1.82
								c-0.22-0.62,0.8,0.57,1.58,1.79c0.15,0.31,0.62,1.23-0.01,0.32c1.5,2.12,3.51,5.46,4.22,6.36c0.7,1.22,0.3,0.93-0.17,0.33
								c3.22,4.53,1.33,2.13,4.55,6.67l-0.17,0l1.19,1.5l1.23,2.45l-0.38-0.92c1.02,1.51,1.72,2.41,2.81,4.24l-0.65-0.6
								c2.91,4.25,2.95,5.18,5.86,9.11c0.15,0.3-0.32-0.3-0.56-0.61c2.76,3.62,1.55,3.07,4.38,6.67c-0.21-0.2-0.02,0.27-0.17,0.15
								l1.25,1.66l-0.33,0.02l1.28,1.19l0.11,0.31c0.01,0.07,0.01,0.11,0.02,0.17c0.01,0.11,0.02,0.21,0.02,0.3l0.33,0.26
								c0,0.07,0,0.13,0.01,0.2c-0.2,0.22-0.35,0.43-0.48,0.64l-0.09,0.16l-0.2,0.43c-0.13,0.3-0.27,0.6-0.41,0.91
								c-0.55,1.23-1.12,2.54-1.86,3.76l0.54-0.33c-2.33,7.33-7.3,15.9-10.63,24.52l-0.2-0.27l-0.3,0.91l-0.15,0.45
								c-0.05,0.16-0.08,0.26-0.19,0.55l-1.04,2.86c-0.78,1.51-0.66,1.1-0.4,0.36c0.26-0.72,0.65-1.75,0.36-1.26
								c-0.36,0.92-0.64,1.63-0.84,2.15c1.37,1.23,1.75,1.47,2.38,1.98c0.32,0.25,0.7,0.57,1.28,1.1c0.4,0.34,0.89,0.79,1.63,1.49
								c1.6,1.83-0.75-0.44-1.64-1.16c3.28,3,8.09,7.47,10.23,9.79c0.08,0.02,0.25,0.12,0.15-0.01c0.43,0.39,0.88,0.82,1.36,1.25
								c0.21,0.21,0.44,0.42,0.66,0.64c-0.14,0.53-0.28,1.08-0.43,1.62c-0.25,0.98-0.49,1.95-0.72,2.87
								c-0.11-0.11,0.06-0.9,0.23-1.7c-0.3,1.14-0.77,2.67-0.88,3.68l0.05-1.25c-0.65,2.42-1.59,7.17-2.01,7.64
								c0.09-0.13,0.18-0.16,0.18,0.12c0,0.14-0.02,0.35-0.08,0.65c-0.01,0.08-0.03,0.16-0.05,0.25c-0.03,0.11-0.05,0.24-0.08,0.37
								c-0.08,0.33-0.17,0.71-0.28,1.14c-0.46,0.93-1.02,3.39-1.63,6.15c-0.62,2.79-1.26,5.79-2.12,8.79c0-0.43,0.99-4.54,0.7-3.37
								c-0.88,3.06-1.2,5.24-1.56,7.25c-0.04-0.08-0.08-0.18-0.12-0.27l-2.71,11.99c-0.09,0.24-0.18,0.5-0.28,0.85
								c0.46-0.36,2.34-2.94,3.9-5.09c1.57-2.16,2.85-3.93,2.41-3.09c1.43-1.91,0.87-1.24,0.44-0.75c-0.44,0.49-0.74,0.8,1.04-1.64
								c0.37-0.35,1.21-1.5,1.87-2.42c0.67-0.92,1.19-1.61,1.04-1.16l-0.41,0.6l2.54-3.45l-1.73,2.8c2.33-3.23,3.94-5.87,4.01-6.32
								c1-1.21,2.22-2.84,3.31-4.27c0.55-0.71,1.07-1.38,1.51-1.95c0.26-0.33,0.35-0.41,0.48-0.56c0.12-0.13,0.23-0.23,0.33-0.31
								l-0.41,0.66c3.41-4.77,6.42-7.32,8.78-11.3c0.24-0.25,0.27-0.18-0.16,0.4l2.88-3.84l-0.73,1.33l1.93-2.77l-1.72-3.3
								l-0.41-0.79l-0.25-0.45l-0.5-0.9l0.16,0.01c-1.67-3.58-4.43-9.12-6.69-13.68l0.39,0.65c-2.62-4.9-2.21-4.88-4.12-8.47
								c0.1,0.11,0.17,0.23,0.24,0.36l-1.6-3.29l0.48,0.66c-0.11-0.18-0.23-0.37-0.34-0.58c-0.08-0.14-0.15-0.28-0.23-0.43
								c-0.05-0.08-0.08-0.18-0.1-0.26c0.06-0.1,0.13-0.18,0.2-0.24l0.02-0.02l0.07-0.14c0.05-0.1,0.1-0.2,0.14-0.3
								c0.09-0.19,0.18-0.36,0.25-0.51c0.29-0.58,0.39-0.78,0.1-0.28c0.42-1.48,1.21-4,1.21-4.49c1.41-3.73,0.52-0.84,1.52-3.1
								c1.05-2.68,1-3.25,2.52-6.85l0.11,0.13c0.63-1.71,0.94-2.81,1.83-5.2l-0.21,0.73c0.6-1.99,1.17-3.16,1.65-4.24
								c0.24-0.54,0.47-1.06,0.66-1.65c0.05-0.15,0.09-0.3,0.14-0.45c0.05-0.18,0.11-0.37,0.17-0.57c0.19-0.6,0.37-1.24,0.55-1.92
								c0.05-0.11,0.09-0.22,0.15-0.36c-0.34-1.16-0.79-2.74-1.16-4.01c-0.26-0.93-0.43-1.64-0.27-1.6
								c-1.72-4.88-2.99-8.7-4.63-13.57c0.21-0.93-0.36-1.04-1.02-4.1l-0.17,0.29c-0.82-2.6-1.6-5.37-2.38-8.22
								c-0.36-1.33-0.73-2.69-1.1-4.05l-0.07-0.67c0.18,0,0.33-0.01,0.47-0.02l0.2-0.03l1.17-0.18l0.26,0.22l1.55-0.51
								c8.55-1.13,19.6-2.65,26.4-3.64c2.21-0.46,5.55-1.26,9.1-1.68l-0.37,0.09c3.07-0.52,6.23-1.05,9.46-1.55
								c1.57-0.23,3.16-0.47,4.76-0.71l0.5-0.05l0.24-0.02c0.07,0.01,0.03,0.16,0.05,0.23c-0.11,0.03-0.16,0.19-0.23,0.16
								c0.14-0.03,0.17,0.16,0.16,0.32l-0.01,0.12c-0.01-0.02,0.01,0.13,0.01,0.24c0.01,0.11,0.02,0.23,0.03,0.34
								c0.04,0.44,0.07,0.85,0.12,1.2l-0.03-1.68c0.5,1.84,0.59,4.57,0.49,5.55c0.2,0.98,0.39,1.97,0.56,2.96
								c-0.01,0.2-0.02,0.51-0.06,0.55l0.18,0.52c-0.06,0.54-0.13,1.08-0.21,1.62c0.04,0.37,0.19,1.54,0.34,2.77
								c0.14,1.23,0.31,2.53,0.5,3.15c-0.09,0.29-0.09,3.1-0.22,0.94c0.11,3.66,0.13,7.31,0.05,10.97l0.13-1.71
								c0.25-0.21,0.41,3.09,0.22,4.79c-0.14-2.24-0.36-0.19-0.57,0.76c0.09,1.49,0.26-1.29,0.38-0.5c0.15,1.88,0,5.85-0.16,6.84
								l-0.04-1.13c-0.04,2.55-0.61,3.69-0.77,6.18c-0.03,2.26-0.39,3.89,0.1,3.48c-0.25,3.25-0.43,1.21-0.59,2.26
								c0.02,1.54-0.72,6.03-1.07,6.56c0.41,1.88-1.77,8.56-1.41,9.3l-0.89,2.53c0.11,0.11,0.34,0.71-0.12,2.83
								c-0.68,1.93-0.8,1.39-1.1,1.95l0.17,1.46c-1.84,5.57-4.02,12-6.76,18.34c-2.73,6.34-6.11,12.54-9.72,17.78
								c-0.76,1.2-1.49,2.53-2.39,3.82c-0.89,1.3-1.81,2.65-2.75,4.02c-2.01,2.64-4.08,5.41-6.39,7.8l0.44-0.59l-2.26,2.39
								c-0.74,0.81-1.58,1.52-2.37,2.29l1.79-1.59c0.58-0.55,1.13-1.12,1.7-1.68c-0.46,0.56-0.86,1.06-1.26,1.55
								c-0.41,0.49-0.85,0.93-1.35,1.42c-5.19,5.06-12.79,11.03-20.16,16.09c-2.27,1.81-3.17,2.21-4.06,2.53
								c-0.9,0.32-1.72,0.67-4.05,2.18c0.39-0.28,0.5-0.44,0.85-0.69c-5.12,3.06-8,4.55-13.38,7.25c0.41-0.82-3.61,1.47-3.23,0.97
								l-0.38,0.41c-0.65,0.16-1.72,0.51-2.57,0.77c-0.86,0.24-1.51,0.41-1.33,0.25c-0.79,0.39-1.59,0.78-2.4,1.14l-0.3-0.17
								c-3.29,1.12-10.58,3.25-12.48,3.1c-4.17,1.16-9.67,2.24-15.5,2.88c-5.83,0.66-11.97,0.85-17.39,0.67
								c-1.53,0.18-4.7,0.05-7.17-0.13l-2.6-0.56c-2.5-0.16-5.21-0.15-7.49-0.74c0.02-0.03,0.12-0.04,0.28-0.03
								c-2.53-0.36-4.87-1-7.26-1.28c-2.72-0.64-5.28-1.58-4.39-1.61c-0.2,0.22-1.62-0.22-2.97-0.73c-1.36-0.48-2.64-1.1-2.64-1.1
								s-0.52-0.19-1.52-0.55c-1-0.33-2.43-0.94-4.27-1.67c-3.64-1.56-8.88-3.91-14.76-7.62c-0.74-0.46-1.49-0.93-2.26-1.41
								c-0.39-0.24-0.77-0.48-1.17-0.72c-0.38-0.27-0.75-0.54-1.14-0.82c-1.52-1.11-3.12-2.23-4.74-3.44
								c-1.55-1.29-3.16-2.61-4.8-3.97c-1.58-1.44-3.16-2.96-4.79-4.49c-6.37-6.3-12.35-14.07-17.58-22.69l-0.99-1.61l-0.93-1.66
								c-0.62-1.11-1.24-2.22-1.87-3.33c-1.15-2.29-2.39-4.53-3.47-6.88c-2.26-4.63-4.29-9.41-6.25-14.19
								c-0.98-2.38-1.95-4.8-2.88-7.17c-0.88-2.36-1.83-4.67-2.6-7.02c-1.68-4.64-3-9.28-4.26-13.75
								c-2.36-8.98-3.97-17.43-4.97-24.75c-1.02-7.31-1.54-13.47-1.93-17.93c-0.28-1.19-0.41-4.52-0.72-3.25
								c-0.08-2.57,0.41-3.74,0.16-4.25c-0.23,3.49-0.63-1.1-1,2.32l-0.02-2.21c-0.17-0.45,0.14,3-0.17,2.46l0.46,0.63
								c-0.07,1.78-0.18,2.76-0.33,3.39c0.22,1.68,0.83,2.73,0.71,6.73l-0.07-1.1c0.13,3.25-0.21,2.01-0.26,2.69l-0.04-0.72
								l-0.08,2.76c0.02-2.09-0.49-5.51-0.39-3.71c0.06,3.9,0.05-1.01,0.26,1.9c0.13,1.81-0.15,1.32-0.3,1.24
								c0.06,1.09,0.14,2.17,0.24,3.25c-0.22-0.09-0.16-2.16-0.28-0.82c0.19,1.36,0.35,2.72,0.57,4.08
								c-0.47,0.82,0.7,4.42,0.45,6.34c-0.5-2.92-0.15,0.29-0.38-0.16c0.29,2.41,0.7,4.79,1.07,7.19c0.03,0.69-0.46-1.86-0.27-0.77
								c0.06,1.38,0.52,2.19,0.64,2.92c-0.01,0.32,0.21,1.66,0.43,2.9c0.23,1.23,0.41,2.37,0.21,2.31c0.37,2.44,0.61,2.93,0.84,3.36
								c0.23,0.44,0.45,0.83,0.88,3.09c-0.08,0.64-0.89-3.54-0.64-1.5c0.39,1.54,0.78,3.09,1.23,4.61c-0.21-0.39-0.61-0.8-0.98-2.56
								c0.74,3.14,1.33,5.95,1.98,8.53c0.6,2.6,1.23,4.98,1.87,7.33c0.61,2.36,1.4,4.62,2.19,7.03c0.84,2.37,1.79,4.83,2.97,7.55
								c0.38,1.65-0.61-1.05-1.21-2.08c1.74,3.91,2.78,6.75,3.75,9.45c0.5,1.35,0.96,2.67,1.51,4.06c0.57,1.39,1.21,2.86,2,4.52
								l0.25,0.02c2.01,4.73,4.58,9.81,7.72,14.76c3.14,4.95,6.63,9.9,10.37,14.43l-0.79-1.17c0.6,0.55,1.32,1.32,2.06,2.13
								c0.37,0.4,0.74,0.81,1.11,1.21c0.39,0.38,0.76,0.74,1.11,1.08c0.12,0.29-1.3-0.7,1.11,1.72c-0.43-0.57-1.35-1.66-0.98-1.43
								c0.81,0.96,1.75,2.05,2.8,3.23c1.07,1.17,2.33,2.34,3.64,3.63c0.67,0.63,1.33,1.32,2.06,1.96c0.74,0.63,1.51,1.27,2.28,1.93
								c1.56,1.31,3.16,2.7,4.95,3.93c0.88,0.64,1.77,1.28,2.66,1.93l1.35,0.98l1.42,0.89c1.91,1.18,3.8,2.41,5.75,3.55
								c3.91,2.24,7.92,4.18,11.72,5.88c10.42,4.27,21.89,7.19,33.48,8.39c11.59,1.25,23.26,0.84,34.11-0.88
								c-3.32,0.49-1.97-0.23,0.53-0.48c6.96-0.2,11.74-2.36,18.62-3.68c6.13-1.92,11.86-3.91,17.35-6.23
								c5.48-2.32,10.72-4.99,15.66-8.36l0.33,0.1c1.59-0.82,1.89-1.25,3.46-2.27l0,0.08c0.96-0.56,1.92-1.22,2.87-1.89
								c0.95-0.67,1.92-1.33,2.79-2c1.74-1.36,3.33-2.54,4.35-3.3l-0.05-0.33c2.02-1.68,1.2-0.69,3.19-2.52l0.03,0.16
								c0.75-0.74,1.46-1.52,2.18-2.28c0.04,0.27,1.49-0.9,3.01-2.43c1.52-1.53,3.23-3.3,4.06-3.96c1.14-1.27,2.72-3.17,4.48-5.2
								c0.85-1.04,1.69-2.16,2.56-3.23c0.85-1.09,1.77-2.12,2.51-3.17c0.38-0.31,1.5-1.75,2.83-3.52c1.33-1.77,2.69-3.98,3.86-5.63
								c1.04-1.67,2.05-3.6,3.2-5.61c1.11-2.03,2.16-4.25,3.31-6.49c2.09-4.58,4.21-9.44,5.86-14.14l-0.37,0.06l0.84-2.46
								c0.06,0.06,0.21-0.26,0.11,0.12c0.53-0.88,0.91-2.34,1.32-3.79c0.39-1.46,0.8-2.92,1.16-3.9c-0.61,1.19-0.54,1.73-0.98,3.15
								c-0.79,1.99-0.46-0.04,0.5-2.75l0.05,0.07l0.34-1.94c0.3-0.14,0.88-1.83,1.18-1.99c1.02-4.15,1.65-7.69,2.21-11.27
								c0.56-3.57,1.03-7.19,1.64-11.53c0.22,0.94,0.59-6.28,0.9-4.48c0.3-5.27-0.46,0.83-0.6-1.6c0.12-1.46,0.1-3.01,0.31-3.26
								c0.07,0.7,0.39-1.17,0.35,0.03c0.09-1.17,0.14-2.34,0.18-3.51c0.06-0.33,0.08,0.44,0.1,0.83c0.12-7.16,0.76-12.7,0.29-19.13
								c-0.19-0.47,0.03,2.55-0.17,2.09c-0.27-3.22-0.24-4.65-0.23-6.03c0.03-1.38,0.06-2.7-0.29-5.7l0.33,1.23
								c-0.31-1.93-0.59-2.76-0.7-5.97c0.25-0.59,0.51,2.69,0.77,4.22c-0.15-2.2-0.83-7.75-0.91-6.03c-0.21-1.31-0.26-2.21-0.3-2.96
								c-0.01-0.38-0.02-0.72-0.04-1.05l-0.02-0.5c-0.01-0.21-0.06-0.61-0.1-0.92c0.03,0.54,0.19,2.84-0.14,1.36
								c-0.01-0.28-0.16-1.34-0.28-2.22c-0.12-0.92-0.26-1.89-0.42-2.88c-0.16-1-0.33-2.03-0.5-3.08c-0.01-0.03-0.01-0.07-0.02-0.09
								l-0.1,0.01l-0.2,0.02l-0.39,0.05l-0.79,0.1c-0.53,0.07-1.07,0.14-1.61,0.21c-3.05,0.43-6.23,0.88-9.04,1.27
								c0.03-0.08-0.29-0.14,0.08-0.23C340.04,104.22,340.31,103.53,335.62,104.3z"/>
							<path class="st15" d="M291.57,205.59l1.87,1.89c0.06-0.03,0.22,0.02,1.26,0.94L291.57,205.59z"/>
							<path class="st15" d="M302.4,211.08c-0.12-0.19-0.23-0.37-0.34-0.53C302.25,210.92,302.34,211.04,302.4,211.08z"/>
							<path class="st15" d="M293.2,193.26c0.68,1.26,0.19,0.08-0.04-0.59C293.09,192.67,293.04,192.73,293.2,193.26z"/>
							<path class="st15" d="M289.09,169.45c-0.09,0.29-0.13,0.48-0.06,0.45C289.14,169.51,289.14,169.42,289.09,169.45z"/>
							<path class="st15" d="M197.42,113.47c0.16,0.01,0.31,0.02,0.52,0.03C197.84,113.48,197.66,113.47,197.42,113.47z"/>
							<path class="st15" d="M204.59,113.69c0.35-0.01,0.81-0.03,1.46-0.09C205.41,113.61,204.96,113.65,204.59,113.69z"/>
							<path class="st15" d="M280.06,195.29c0.35,0.33,0.7,0.64,1.04,0.88C280.57,195.66,280.27,195.43,280.06,195.29z"/>
							<path class="st15" d="M207.53,113.49l1.8-0.03c0.01-0.02,0.03-0.03,0.03-0.06L207.53,113.49z"/>
							<path class="st15" d="M195.15,113.51c0.7-0.01,1.66-0.04,2.27-0.04C196.52,113.42,195.81,113.44,195.15,113.51z"/>
							<path class="st15" d="M272.65,127.25c0.03,0.05,0.07,0.1,0.11,0.16C273.63,128.52,273.11,127.81,272.65,127.25z"/>
							<path class="st15" d="M215.4,112.74c0.07,0,0.16,0,0.24,0l0.52-0.1L215.4,112.74z"/>
							<path class="st15" d="M187.36,113.64c0.34-0.02,0.65-0.04,0.9-0.08c-0.28,0-0.61,0-1.02,0
								C187.33,113.6,187.36,113.62,187.36,113.64z"/>
							<path class="st15" d="M252.13,111.83c-0.51,0.12-0.7,0.2-0.71,0.26C252.02,112.07,252.4,112.01,252.13,111.83z"/>
						</g>
					</g>
				</g>
			</g>
		</g>
		<g>
			
				<rect x="182.32" y="265.23" transform="matrix(0.9997 -0.0255 0.0255 0.9997 -7.0359 6.1617)" class="st15" width="111.37" height="27.29"/>
			<g>
				<g>
					<g>
						<g>
							<path class="st15" d="M283.12,262.53c0.02-0.03,0.04-0.07,0.05-0.13C283.13,262.45,283.11,262.49,283.12,262.53z"/>
							<path class="st15" d="M261.25,262.24l0.25-0.07C261.34,262.18,261.28,262.21,261.25,262.24z"/>
							<path class="st15" d="M294.59,266.35c-0.01-0.02-0.02-0.02-0.03-0.03c0,0.26,0,0.61,0.01,1.18L294.59,266.35z"/>
							<path class="st15" d="M214.63,262.48l0.29-0.01C214.79,262.47,214.7,262.46,214.63,262.48z"/>
							<path class="st15" d="M242.26,262.41c-0.08,0.06-0.23,0.08-0.37,0.1C242.07,262.52,242.21,262.5,242.26,262.41z"/>
							<path class="st15" d="M291.95,273.69l0.18-0.38C292.05,273.33,291.96,273.46,291.95,273.69z"/>
							<path class="st15" d="M293.06,286.95c0.01-0.01,0.03-0.01,0.04-0.04C293.08,286.9,293.07,286.92,293.06,286.95z"/>
							<path class="st15" d="M293.69,281.75c-0.02-0.11-0.06-0.24-0.09-0.37C293.61,281.53,293.61,281.73,293.69,281.75z"/>
							<path class="st15" d="M293.54,281.2l0.05,0.18C293.59,281.28,293.58,281.2,293.54,281.2z"/>
							<path class="st15" d="M292,293.55c0.38,0,0.7-0.15,1.05-0.28L292,293.55z"/>
							<path class="st15" d="M178.79,276.21l-0.08-0.08C178.73,276.21,178.76,276.22,178.79,276.21z"/>
							<path class="st15" d="M292.44,291.88l0.27,0.03C292.61,291.88,292.52,291.87,292.44,291.88z"/>
							<path class="st15" d="M291.28,267.38c-0.19-0.1,0.02-0.58-0.16-0.48C291.16,267.08,291.02,267.39,291.28,267.38z"/>
							<path class="st15" d="M186.06,284.95l0.02,0.25C186.07,285.08,186.07,285.01,186.06,284.95z"/>
							<path class="st15" d="M292.44,291.88l-0.31-0.04c0.03,0.03,0.06,0.06,0.1,0.09C292.29,291.9,292.36,291.88,292.44,291.88z"/>
							<path class="st15" d="M208.9,296.8l-0.01,0c-0.03,0.01-0.05,0.02-0.09,0.04L208.9,296.8z"/>
							<path class="st15" d="M211.24,297.04c-0.16,0.02-0.32,0.05-0.49,0.07C211.01,297.13,211.15,297.09,211.24,297.04z"/>
							<path class="st15" d="M293.05,293.26l0.6-0.16C293.43,293.13,293.24,293.19,293.05,293.26z"/>
							<path class="st15" d="M236.36,296.13c-0.08,0.01-0.16,0.02-0.23,0.03C236.23,296.16,236.3,296.15,236.36,296.13z"/>
							<path class="st15" d="M244.04,262.48c0.06,0.02,0.14,0.02,0.2,0.04C244.26,262.47,244.25,262.44,244.04,262.48z"/>
							<polygon class="st15" points="226.8,267.89 226.8,267.89 226.8,267.89 							"/>
							<path class="st15" d="M227.72,267.63c-0.29-0.03-0.7,0.11-0.92,0.26C227.1,267.88,227.37,267.83,227.72,267.63z"/>
							<path class="st15" d="M224.81,267.84c0.04,0.01,0.07,0.01,0.11,0.02C224.88,267.85,224.85,267.84,224.81,267.84z"/>
							<path class="st15" d="M243.47,267.74c0-0.01,0-0.01,0-0.02l-0.01,0.02L243.47,267.74z"/>
							<path class="st15" d="M239.78,267.86c-0.07-0.03-0.16-0.06-0.26-0.08C239.58,267.82,239.67,267.85,239.78,267.86z"/>
							<path class="st15" d="M215.63,268.6L215.63,268.6c0-0.01-0.01-0.01-0.02-0.01C215.62,268.6,215.63,268.6,215.63,268.6z"/>
							<path class="st15" d="M186.28,270.73c-0.01-0.01-0.03-0.02-0.05-0.04c-0.03-0.03-0.04-0.08-0.02-0.13
								c0.01-0.02,0.02-0.05,0.05-0.07c0.01-0.01,0-0.01,0.03-0.02l0.33-0.02l0.66-0.05c1.77-0.12,3.52-0.22,5.06-0.21
								c0.74-0.4,1.84-0.45,2.94-0.56l0.13,0.51l0.92-0.19c0.38,0.14-0.71,0.11-0.04,0.29l0.34-0.33c0.08,0.18,2.37,0.06,0.83,0.47
								l3.58-0.09c0.79,0,0.45-0.44,1.33-0.33c0.18,0.14-0.31,0.11-0.24,0.29c2.64,0.31,3.01-1.07,5.46-0.9l-0.21,0.07
								c0.41-0.15,1.21-0.15,1.21-0.22c-0.33-0.51-0.43,0.29-1.19,0.01c0.05-0.44,0.93-0.26,0.87-0.59
								c0.58,0.14,0.91-0.11,1.41-0.15c0.86,0.25,2.08,0.03,2.73,0.35c0.41-0.15,0.87-0.58,1.77-0.63c0.65,0.32-0.14,0.33,0.73,0.43
								l0.13-0.26c0.72,0.02,0.61,0.09,0.58,0.21c0.77-0.01,0.63-0.36,1.6-0.22l-0.53,0.26c0.71-0.11,1-0.08,1.99-0.08
								c-0.02,0.15-0.42,0.15-0.71,0.11c0.55,0.36,0.92-0.18,1.21-0.15c-0.09-0.11-0.77-0.14-0.44-0.4c0.49,0.03,1.04-0.37,1.4-0.08
								l-0.53,0.26c1.02-0.22,0.54-0.33,1.72-0.26c-0.06,0.02-0.03,0.08-0.06,0.14c0.74-0.34,1.72-0.07,2.82-0.08l-0.21,0.07
								c0.44-0.1,0.68-0.33,0.92-0.32c-0.63-0.13-0.46-0.21-0.52-0.45c0.84,0.39,1.25-0.51,2.62-0.3c-0.02,0.14-0.34,0.33-0.72,0.18
								c-0.45,0.44-0.5,0.8-1.32,1.02c0.51-0.11,1.11-0.19,0.99,0l0.15-0.4c0.31-0.02,0.56,0,0.79-0.01
								c0.13-0.25-0.64-0.39,0.08-0.58c0.81-0.15,0.44,0.4,0.56,0.21c1.11-0.19,0.45-0.44,1.53-0.33c-0.11,0.04-0.31,0.11-0.41,0.07
								c0.78,0.14,1.89-0.12,2.13,0.35c-0.11,0.11-0.13,0.25-0.42,0.22l0.01-0.07c-0.84,0.37,0.71-0.11,0.45,0.32
								c-0.07-0.25,1.02-0.22,1.51-0.19l-0.16-0.29c1.61-0.91-0.07,0.58,1.53,0.43c1.02-0.22-0.39-0.07,0.23-0.29
								c0.69,0.03,0.96,0.29,1.96,0.13c0.28,0.11,0.86,0.25,0.92,0.58c0.61-0.15,1.87,0.1,2.21-0.23c-1.06-0.25-1.04,0.37-2.27-0.03
								l0.34-0.33c0.85,0,1.93-0.19,2.52-0.09c-0.12-0.06-0.18-0.14-0.1-0.21c1.21-0.15,1.55-0.48,2.73-0.41
								c0.16,0.29-0.53,0.26-1.03,0.29c0.76,0.21,0.79,0,1.97,0.06c0.07,0.25-0.79,0-0.92,0.26l1.3-0.11c0,0.02,0,0.03,0,0.05
								c0.18-0.43,0.99,0.01,1.79-0.14c1.89-0.04,2.16-0.63,3.2-0.99c0.28,0.11,0.37,0.22,0.25,0.33c-0.47-0.18-0.38-0.03-0.54,0.08
								c0.64-0.06,1.41,0.38,1.05,0.57c1.01-0.15-0.37-0.22,0.25-0.36l1.39-0.01c-0.17-0.22-0.66-0.25,0.06-0.44
								c0.6-0.08,0.9-0.04,1.69-0.04c-0.11,0.11,0.26,0.33-0.34,0.33c0.38,0.07,0.98,0.07,1.21-0.15c-0.87-0.18,1.42-0.22,0.76-0.55
								l0.87,0.18c-0.2,0-0.22,0.15-0.51,0.11c0.25,0.33,0.71-0.11,1.01-0.15c0.31,0.06,1.1,0.07,1.17,0.19
								c0.27-0.1,0.94-0.04,1.07,0.12c0.41-0.08,0.03-0.22,0.14-0.33l1.38-0.01c0.08,0.18,0.21,0.69,0,0.76
								c0.52-0.18,0.17-0.55,0.97-0.55c-0.45,0.37,1.05,0.25,0.41,0.69c0.46,0.25,1.75,0.21,2.46,0.1c0.43-0.29-0.77-0.14-0.74-0.43
								c2-0.15,2.1-0.95,3.57-0.85l-0.38-0.07c0.91-0.19,0.81-0.15,1.34-0.41c-0.24,0.36,1.07,0.94,2.57,0.82
								c0.12-0.18-0.85-0.32-0.61-0.61l1-0.08c0.07,0.03-0.04,0.09-0.16,0.14c0.89-0.15,1.68,0.42,1.93,0l0.92,0.5l-0.37-0.22
								c0.12-0.18,1.12-0.26,1.33-0.33c1.02-0.22,1.4-0.08,1.96,0.14c-0.18-0.14-0.64-0.47,0.17-0.54c0.01,0.58,1.7,0.17,1.68,0.48
								c0.33-0.02,0.91,0.15,0.94-0.09l-0.05,0.36c0.06-0.51,1.25-0.51,2.16-0.63c-0.19,0.69,1-0.08,1.42,0.54
								c0.16-0.47,1.61-0.22,1.76-0.62c0.7-0.04,0.64,0.4,0.82,0.54l0.32-0.18c0.36,0.21,1.67,0.21,2.46,0.34l0.72-0.43l0.27,0.18
								c0.11-0.11,0.72-0.18,0.34-0.33l0.39,0.01c-0.01-0.22,0.19-0.26,0.32-0.26c0.15,0,0.35,0.03,0.63-0.08
								c0.1,0.07,0.03,0.18-0.08,0.24c0.23,0,0.07,0.23,0.13,0.38c-0.05-0.06,0.19-0.26,0.45-0.48c0.25-0.22,0.51-0.45,0.16-0.54
								c0.01-0.18,0.58-0.33,0.85-0.26c-0.02,0.14-0.06,0.27-0.1,0.41c0.21-0.15,0.43-0.29,0.67-0.44c0.25-0.03,0.38,0,0.47,0.05
								c-0.06,0.25-0.14,0.48-0.16,0.7c-0.04-0.4-0.78,0.05-0.75,0.76c-0.03-0.19-0.12-0.26-0.2-0.3c-0.15,0.07-0.28,0.12-0.4,0.18
								c0.12,0.01,0.13,0.05-0.2,0.23c0.15-0.04,0.25-0.07,0.32-0.11c0.09,0.03,0.16-0.12,0.2,0.21c-0.35,0.27-0.46,0.51-0.58,0.89
								c0.09-0.13,0.17-0.27,0.25-0.42c0.04-0.02,0.08-0.02,0.1-0.01c0.04-0.14,0.09-0.21,0.23-0.35c0,0.07,0.46,0.33,0.24,0.55
								c0.27-0.43,0.38-0.24,0.47,0.06c0.09,0.29,0.15,0.66,0.31,0.4c0.11,0.08,0.14,0.57-0.04,0.7c-0.07-0.22-0.13-0.23-0.19-0.22
								c-0.05,0.01-0.1,0.08-0.15,0.22c-0.09,0.25-0.18,0.58-0.31,0.52c0.11,0.31,0.25-0.66,0.4-0.25c0.04,0.5-0.18,0.87-0.28,1.15
								l-0.07-0.21l-0.14,0.77c0.18,0.12,0.29-0.75,0.4-0.05c-0.07,0.19,0.04,0.9-0.1,0.88c-0.26-0.33-0.58-0.08-0.66-0.68
								c0.04,0.5,0.12,2.1,0.44,1.44l0,0.6c0.14-0.38,0.39-1.44,0.47-0.24l-0.07-0.01l0.29,0.83l-0.18,0.37
								c0.09-0.01,0.18,0.12,0.18,0.43c-0.11,0.08-0.14,0.38-0.29,0.36c0.04,0.9,0.22,0.82,0.33,0.93c0.04,0.5-0.03,0.69-0.25,0.46
								c-0.03,0.69,0.05,1.89-0.13,2.36c0.19,0.92,0.07-0.19,0.33,0.34c-0.61,0.81-0.17,3.05-0.05,4.55
								c0.54-0.42,0.07,0.41,0.58,0.67c-0.18-0.32-0.39,1.44-0.58,0.13l0.08,0.8c-0.29,0.56-0.26-1.32-0.66-0.48
								c0.04,0.9,0.66,1.47,0.48,2.54c-0.4-0.35,0.15,0.81-0.29,0.56c-0.15-0.22-0.11-0.51-0.15-0.81l-0.07,0.19
								c-0.06,1.97,0.48,0.56,0.77,1.58c0.08,1.2-0.28,0.95-0.47,1.03c-0.07,0.19,0,0.79,0.11,1.11c-0.26-0.73,0.21-1.36,0.47-1.03
								c-0.43,0.54,0.01,1.78,0.19,2.11c0.43-1.73-0.01-1.19,0.46-2.81c-0.15-0.22-0.54-0.17-0.4-1.14c0.21,0.6,0.22-0.05,0.28-0.22
								c-0.23,0.19-0.11-0.67-0.22-0.96c0.18-0.27,0.55,0.57,0.61-0.42l-0.55-0.17c0.07-0.39,0.4,0.15,0.25-0.66
								c0.29,0.43,0.43-0.14,0.55,0.96c0.43-1.33-0.3-2.02-0.52-3.03c0.04,0.1,0.11,0.11,0.15,0.22c-0.15-0.22-0.15-0.61-0.19-0.91
								c0.11-0.68,0.26,0.53,0.4,0.35l-0.04-1.09c0.02-0.02,0.03-0.03,0.04-0.03c-0.08-0.29-0.14-0.56-0.01-0.66
								c0.18,0.32,0.36,0.44,0.51,0.66l-0.4-1.14c0.18,0.12,0.28-0.96,0.43-0.14l-0.12-1.7l0.36-0.15
								c-0.07-0.41-0.15-0.42-0.18,0.07c0.07-0.58-0.7-2.56,0.02-2.27c-0.33-1.33-0.23-1.81-0.45-3.42
								c0.37,1.23,0.39-1.44,0.58-0.12c0.14-0.78-0.26-0.93-0.33-1.53c0.14-0.57,0.51-0.33,0.65,0.28l-0.18-0.72l0.07,0.01
								l-0.22-0.62c0.18-0.67,0.36-0.15,0.39-0.84l-0.33-0.14l0.18-0.47c-0.14,0.16-0.22-0.17-0.26-0.81l0.07,0l-0.08-0.73
								c0.21,0.69,0.05-0.7,0.29-0.44c0-0.67-0.01-0.69-0.09-1.84l-0.21,0.35c-0.23-1.35,0.32-0.29,0.31-1.57l-0.25,0.3
								c0.06-0.32,0.09-0.61,0.1-0.88c-0.65-0.05-1.35,0.05-1.97,0.14c-0.62,0.08-1.16,0.15-1.68,0.05c0.77-0.08,0.71-0.37,0.66-0.3
								c-0.61,0.06-1.39,0.09-2.17,0.14c-0.66,0.05-1.22,0.12-1.7,0.29c-0.35-0.36-0.44-0.47-1.41-0.61c-0.7,0.04-0.8,0.08-1.03,0.3
								c-0.68-0.13-1.95,0.12-1.99-0.15c-0.15,0.22-0.61-0.03-0.98,0.16l-0.08-0.11l0.06,0.25c-1.22-0.54-2.03,0.37-3.26-0.09
								l0.21-0.07l-0.51,0.11c-0.08-0.11,0.12-0.18,0.14-0.33l-2.38,0.01l0.47,0.18c-0.5,0.04-0.83,0.29-1.41,0.15
								c0.94-0.4-0.79,0.01-0.95-0.28l0.51-0.11c-0.7,0.04-0.7,0.04-0.63,0.29c-0.9,0.11-0.63-0.47-1.46-0.17l0.59,0
								c0.18,0.14-0.24,0.36-0.64,0.37c-0.1-0.04-0.38-0.14-0.08-0.18c-0.71,0.11-1.78,0.01-2.09,0.12
								c-0.39-0.07-0.27-0.25-0.06-0.33c-1.52,0.26-0.69-0.03-2.21,0.23l0.02-0.15l-0.52,0.19l-0.76-0.29l0.27,0.18
								c-0.5,0.04-0.81,0.15-1.4,0.08l0.23-0.22c-1.41,0.15-1.64-0.32-2.98,0.02c-0.09-0.04,0.11-0.11,0.22-0.15
								c-1.24,0.37-0.95-0.36-2.19,0.08c0.08-0.07-0.06-0.16-0.02-0.22l-0.57,0.15l0.04-0.29l-0.45,0.44l-0.36-0.29l-0.22,0.14
								c-0.62-0.54-1.47-0.1-2.31-0.49l0.15,0.36c-2.08,0.81-4.81-0.3-7.34,0.11l0.04-0.29l-1.04,0.37
								c-0.57-0.21,0.33-0.26,0.15-0.4c-1.12,0.19-0.46,0.44-1.76,0.55c-0.67-0.18,0.23-0.22,0.54-0.33
								c-1.22,0.17-3.01,0.38-3.88,0.24c-0.02,0.04-0.07,0.09-0.03,0.11c-0.81,0.15-1.89,0.05-2.78,0.09
								c0.02-0.13,0.24-0.16,0.46-0.19c-0.32-0.01-0.77-0.09-1.04,0.05l0.33-0.26c-0.69-0.03-2.01,0.23-2.17-0.06
								c0.09,0.11,0.06,0.33-0.54,0.33c-0.34-0.43-1.61,0.23-2.57,0.01c0.11-0.11,0.81-0.15,0.61-0.15
								c-0.48-0.1-0.91,0.11-1.32,0.26l0.12-0.18l-2.22,0.3c-0.34-0.43-2.1,0.12-1.95-0.21c-0.79,0,0.67,0.18-0.33,0.25
								c-0.27-0.18-0.91,0.11-0.87-0.18l0.11-0.04l-0.7,0.04l0.44-0.29c-0.6,0.08-1.04,0.37-1.06,0.59
								c-0.58-0.14-1.39,0.01-1.65-0.24l0.21-0.07c-1.61,0.15-2.68-0.71-3.94-0.2c-0.1-0.04-0.09-0.11,0.11-0.11l-0.99,0.01
								l0.23-0.22l-1.64,0.37l0.02-0.14c-1.09-0.03-2.78,0.09-4.18,0.17l0.21-0.07c-1.52,0.26-1.47-0.1-2.59,0.09
								c0.04-0.04,0.08-0.05,0.12-0.06l-1,0.03l0.22-0.15c-0.74,0.33-2.13-0.35-1.67-0.1c-0.42,0.15-1.14,0.33-1.26,0.51
								c-1.09,0.04-0.27-0.18-0.95-0.28c-0.79,0.01-0.93,0.26-2,0.16l0.02-0.15c-0.5,0.04-0.81,0.15-1.51,0.19l0.21-0.07
								c-1.13,0.33-1.43-0.39-2.31,0.26c-0.48-0.11-1.39,0.01-1.35-0.28c-1.42,0.22-2.52,0.34-3.92,0.49
								c-0.24-0.47-0.3,0.04-1.16-0.21l0.07,0.25c-1.99,0.08-4.3-0.49-6.49-0.33l-0.07-0.25l-0.43,0.29
								c-1.19-0.02-2.54-0.04-3.84-0.06c-0.32,0-0.65,0-0.96,0c-0.56,0.01-1.1,0.01-1.63,0.02c-1.13,0.02-2.17,0.04-3.07,0.06
								c-0.82,0.12-1.85,0.34-3.05,0.43c0.03,0.47,0.05,0.93,0.03,1.38l-0.04-0.22c0.23,3.1,0.43,7.08,0.32,8.33
								c-0.11-0.11-0.18,0.07-0.26-0.13c0.29,0.44,0.04,1.09,0.04,1.49l0.18-0.47c0.26,0.52,0.04,1.29-0.14,1.57l0.3,0.83
								c-0.02,0.06-0.06,0.14-0.1,0.15l0.14,0.15l-0.32,0.45c0.07,0.21,0.19,1.31,0.52,1.65c-0.11,0.08-0.18,0.87-0.25,0.26
								l-0.02,3.07l0.11-0.48c0.25-0.07,0.44,0.85,0.33,1.33c-0.22-0.62-0.36-0.04-0.54,0.23c0.15,0.41,0.22-0.37,0.36-0.15
								c0.18,0.52,0.3,1.62,0.19,1.9l-0.11-0.31c0.11,0.71-0.32,1.05-0.28,1.75c0.22,0.62,0.04,1.09,0.48,0.95
								c0.11,0.91-0.29,0.36-0.32,0.65c0.22,0.42,0.12,1.7-0.1,1.86c0.32,0.06,0.3,1.33,0.25,2.35c-0.04,1.06-0.1,2.11,0.17,2.12
								l-0.27,1.57c0.14-0.06,0.47-0.04,0.55,0.95c-0.04,0.34-0.09,0.58-0.14,0.75c0.19,0.13-0.01,0.29,0.12,0.4l1.16-0.57
								c1.32,0.11,2.88,0.15,4.54,0.16c1.16,0,2.37,0,3.59,0c1.95-0.01,3.93-0.04,5.74,0.15c1.6-0.15,3.62-0.45,5.5-0.43l-0.21,0.07
								l1.87,0.1l-1.36-0.21c0.41-0.07,0.72-0.18,1.12-0.19c2.05,0.17,4.79,0.37,7.31,0.04c1.62-0.66,1.1,0.52,2.65,0.03
								c-0.13,0.06-0.18,0.15-0.3,0.21c1.68-0.25,2.59-0.38,4.27-0.78c-0.18,0.62,1.1-0.04,0.95,0.28l0.13-0.25
								c0.38,0.14,1.26,0.17,1.14,0.36l0.74-0.33l0.07,0.25c0.99-0.01,3.1-0.27,3.63,0.24c2.43-0.45,6.29-0.43,9.36-0.41
								c0.43-0.22,1.32-0.26,2.02-0.3l0.75,0.29c0.71-0.11,1.46-0.51,2.12-0.34c0,0.04-0.03,0.06-0.08,0.08
								c0.72-0.08,1.41,0.06,2.08-0.23c0.79,0,1.57,0.14,1.33,0.43c0.06-0.51,1.68,0.03,1.68,0.03s40.7,0.19,50.55-2.8
								c0.33-0.26,1.25-0.44,0.89-0.73c0.71-0.11,1.05,0.32,1.18,0.07c-0.97-0.14,0.28-0.65-0.67-0.94l0.61-0.08
								c0.12-0.18-0.82,0.22-0.68-0.1l-0.16,0.47c-0.49-0.06-0.77-0.15-0.94-0.3c-0.46,0.19-0.74,0.83-1.85,0.59l0.3-0.04
								c-0.9,0.04-0.56-0.29-0.75-0.36l0.2,0l-0.76-0.22c0.58,0.14,1.52-0.26,1.02-0.22c-1.08-0.1,0.28,0.11-0.52,0.18
								c-0.5,0.04-0.36-0.22-0.35-0.36l-0.9,0.04c0.03-0.22,0.59,0,0.22-0.22l-1.12,0.26c-0.22-0.54-1.22,0.3-1.75-0.21
								c0.81-0.15-0.08-0.18,0.05-0.36l-1.99,0.08c-0.19-0.07,0.52-0.18,0.22-0.15c-0.38-0.14-0.61,0.15-0.81,0.15
								c-0.18-0.15-1.49,0.04-1.44-0.32c-1.36-0.21-0.56,0.48-1.82,0.3c-0.17-0.22,1-0.08,0.43-0.29l-1.3,0.11
								c0.12-0.11,0.25-0.36,0.74-0.33c-3.54-0.2-5.47-1.32-8.69-0.94c-0.46-0.25,0.32-0.18,0.64-0.37
								c-2.33,0.41-3.3-0.49-5.29-0.41l-0.03,0.22c-2.79-0.6-6.12-0.12-9.27-0.32l0.38,0.14c-0.43,0.22-1.12,0.26-1.64,0.37
								c-0.08-0.11,0.36-0.47-0.55-0.36c0.19,0.07,0.58,0.14,0.47,0.25c-2.71-0.5-8.39-0.21-12.83-0.37
								c-5.98,0.32-12.49,0.06-18.37,0.34c0.9-0.04,0.53,0.5-0.15,0.4c-1.87-0.86-3.2,0.23-5.1-0.34c-3.42,0.38-6.5-0.33-9.67,0.45
								l-0.07-0.25c-0.48-0.1-0.6,0.08-1.1,0.11l0.01-0.07c-1.18-0.07-2.61,0.23-3.29,0.12l-0.04,0.29
								c-0.7,0.04-0.37-0.21-1.08-0.03l0.02-0.15l-0.83,0.29c0.07-0.51-1.98,0.01-2.55-0.2c-0.91,0.11-2.62,0.38-4,0.31
								c-0.26-0.25-1.95-0.21-3.03-0.31c-1.05,0.05-2.32,0.11-3.66,0.18c-0.67,0.02-1.36,0.04-2.05,0.06
								c-0.34,0-0.69,0.01-1.03,0.01l-0.45,0l-0.04-0.01l-0.03,0.33l-0.12,0.02c0.02-0.07,0.02-0.11,0.04-0.15
								c0.01-0.19-0.02-0.16-0.09-0.11c-0.06,0.05-0.17,0.11-0.11,0c-0.18,0.3,0.03,0.05,0.06,0.05c0,0.16-0.26,0.48-0.32,0.32
								l0.06-0.07c-0.07,0.06-0.15,0.12-0.24,0.18c0.14-0.18,0.2-0.3,0.32-0.44c0.06-0.07,0.12-0.14,0.19-0.21
								c-0.03-0.04-0.16-0.04-0.26-0.14c-0.03-0.02-0.05-0.05-0.07-0.09l-0.02-0.03c-0.01-0.01-0.01-0.11-0.02-0.16l-0.03-0.38
								c-0.04-0.51-0.06-1.06-0.04-1.65c0.29,0.24-0.12-1.7,0.39-1.24c-0.22-1.42-0.4,0.24-0.76-0.4c0-0.4-0.15-0.81,0.03-0.89
								c0.12,0.18,0.29-0.33,0.35-0.01l-0.06-0.95c0.04-0.09,0.11,0.12,0.15,0.22c-0.34-1.93,0.24-3.44-0.1-5.16
								c-0.18-0.12-0.03,0.69-0.22,0.57c-0.41-1.74,0.28-1.55-0.02-3.17l0.26,0.33c-0.18-0.52-0.4-0.75-0.23-1.61
								c0.29-0.16,0.26,0.73,0.4,1.14c0-0.59-0.12-2.09-0.37-1.63c-0.11-0.71,0.14-0.97,0.21-1.36c-0.07-0.01-0.18,0.67-0.32,0.26
								c0.07-0.49,0.09-1.1,0.1-1.75c0-0.32,0-0.65,0-0.97l0-0.12l0-0.01l0-0.02l0.01-0.04c0.07,0.01,0.18,0.03,0.22,0.04
								C185.71,270.54,186.36,270.73,186.28,270.73z"/>
							<path class="st15" d="M243.95,267.77l-0.48-0.03c0,0.06-0.02,0.14-0.24,0.22L243.95,267.77z"/>
							<path class="st15" d="M221.28,268.16c-0.06,0.02-0.12,0.05-0.17,0.08C221.23,268.23,221.26,268.19,221.28,268.16z"/>
							<path class="st15" d="M215.79,268.81c0.39-0.07,0.04-0.14-0.16-0.21C215.62,268.66,215.63,268.73,215.79,268.81z"/>
							<path class="st15" d="M256.77,266.67c-0.08,0.03-0.13,0.07-0.12,0.13C256.76,266.75,256.79,266.71,256.77,266.67z"/>
							<path class="st15" d="M290.7,266.02c-0.01-0.01-0.03-0.02-0.04-0.04C290.66,266,290.67,266.01,290.7,266.02z"/>
							<path class="st15" d="M289.84,265.58c-0.06,0-0.14,0.01-0.25,0.05C289.7,265.64,289.78,265.62,289.84,265.58z"/>
							<path class="st15" d="M248.17,267c-0.13,0.01-0.26,0.04-0.37,0.1C248,267.09,248.1,267.04,248.17,267z"/>
							<path class="st15" d="M289.36,265.7c-0.09-0.01-0.18-0.02-0.37-0.02c0,0.02-0.01,0.03-0.01,0.06l0.24-0.02L289.36,265.7z"/>
							<path class="st15" d="M290.97,266.05c-0.08-0.01-0.21,0-0.27-0.03C290.76,266.1,290.85,266.09,290.97,266.05z"/>
							<path class="st15" d="M269.79,265.97c-0.02,0-0.03,0.01-0.05,0.01C269.35,266.11,269.59,266.05,269.79,265.97z"/>
							<path class="st15" d="M287.33,266.25c-0.02,0-0.04-0.01-0.07-0.01l-0.14,0.08L287.33,266.25z"/>
							<path class="st15" d="M291.12,266.9c-0.01-0.04-0.02-0.07-0.06-0.08c-0.01,0.04-0.02,0.09-0.03,0.14
								C291.07,266.94,291.1,266.92,291.12,266.9z"/>
							<path class="st15" d="M277.23,266.23c0.14-0.11,0.19-0.19,0.19-0.24C277.25,265.99,277.15,266.05,277.23,266.23z"/>
						</g>
					</g>
				</g>
			</g>
		</g>
		<g>
			<g>
				<path class="st15" d="M122.89,143.46c-29.77-12.18-66.94-1.28-80.87,29.02c-7.5,16.3-4.68,34.38,7.99,47.2
					c8.69,8.8,20.21,14.16,31.72,18.22c17.23,6.08,36.38,6.11,53.73,0.46c9.14-2.98,5.23-17.47-3.99-14.46
					c-21.76,7.09-45.74,3.1-64.52-9.55c-10.19-6.87-16.77-17.85-13.33-30.34c3.79-13.76,16.7-25.2,30.22-28.95
					c11.48-3.18,24.12-1.59,35.05,2.88c3.78,1.54,8.21-1.68,9.23-5.24C129.36,148.41,126.63,144.99,122.89,143.46L122.89,143.46z"/>
			</g>
		</g>
	</g>
</g>
</svg>
