<?xml version="1.0" encoding="utf-8"?>
<!-- Generator: Adobe Illustrator 24.1.1, SVG Export Plug-In . SVG Version: 6.00 Build 0)  -->
<svg version="1.1" xmlns="http://www.w3.org/2000/svg" xmlns:xlink="http://www.w3.org/1999/xlink" x="0px" y="0px"
	 viewBox="0 0 400 400" style="enable-background:new 0 0 400 400;" xml:space="preserve">
<style type="text/css">
	.st0{fill:#3E5983;}
	.st1{fill:#E3BB94;}
	.st2{fill:#D4A87F;}
	.st3{fill:none;stroke:#B51A19;stroke-miterlimit:10;}
	.st4{fill:#17294B;}
	.st5{fill:#B17F4A;}
	.st6{fill:none;stroke:#C84339;stroke-width:0.25;stroke-miterlimit:10;}
	.st7{fill:none;stroke:#1D355E;stroke-width:0.25;stroke-miterlimit:10;}
	.st8{fill:none;stroke:#D1B493;stroke-width:0.5;stroke-miterlimit:10;}
	.st9{fill:none;stroke:#000000;stroke-miterlimit:10;}
	.st10{clip-path:url(#SVGID_2_);fill:#1D355E;stroke:#1D355E;stroke-miterlimit:10;}
	.st11{clip-path:url(#SVGID_2_);}
	.st12{fill:#97C4EA;}
	.st13{fill:#BE1622;}
	.st14{clip-path:url(#SVGID_2_);fill:none;}
	.st15{fill:#9A1418;}
	.st16{fill:#701512;}
	.st17{fill:none;stroke:#701512;stroke-width:0.5;stroke-miterlimit:10;}
	.st18{clip-path:url(#SVGID_4_);}
	.st19{fill:#344A6D;}
	.st20{fill:#1D355E;}
	.st21{fill:none;stroke:#1D355E;stroke-width:0.5;stroke-miterlimit:10;}
	.st22{clip-path:url(#SVGID_6_);}
	.st23{fill:#FFFFFF;}
	.st24{fill:#B26965;}
	.st25{fill:#668AB2;}
	.st26{fill:#567495;}
	.st27{fill:none;stroke:#67779B;stroke-width:0.5;stroke-miterlimit:10;}
	.st28{fill:none;stroke:#000000;stroke-width:0.5;stroke-miterlimit:10;}
	.st29{fill:#AF5E43;}
	.st30{fill:#A2151B;}
	.st31{fill:none;stroke:#EED9C6;stroke-width:0.5;stroke-miterlimit:10;}
	.st32{fill:#192E53;}
	.st33{fill:none;stroke:#000000;stroke-width:0.25;stroke-miterlimit:10;}
	.st34{fill:none;stroke:#701512;stroke-width:0.25;stroke-miterlimit:10;}
	.st35{fill:#C18463;}
	.st36{fill:#4D6885;}
	.st37{fill:#B51A19;}
	.st38{fill:none;stroke:#C84339;stroke-miterlimit:10;}
	.st39{fill:#366592;}
	.st40{fill:#1D355E;stroke:#1D355E;stroke-width:0.5;stroke-miterlimit:10;}
	.st41{fill:#1B3056;}
	.st42{fill:#2D4362;}
	.st43{fill:#2D2E83;}
	.st44{clip-path:url(#SVGID_8_);}
	.st45{fill:none;stroke:#3E5983;stroke-miterlimit:10;}
	.st46{fill:none;stroke:#C84339;stroke-width:0.5;stroke-miterlimit:10;}
	.st47{fill:#006633;}
	.st48{fill:none;stroke:#397545;stroke-width:0.5;stroke-miterlimit:10;}
	.st49{fill:#AA372E;}
	.st50{fill:#3E5983;stroke:#3E5983;stroke-width:0.5;stroke-miterlimit:10;}
	.st51{fill:#142136;}
	.st52{fill:none;stroke:#432918;stroke-width:0.5;stroke-miterlimit:10;}
	.st53{fill:none;stroke:#39668D;stroke-width:0.5;stroke-miterlimit:10;}
	.st54{fill:#00517B;}
	.st55{fill:#A91F1A;}
	.st56{fill:none;stroke:#B03425;stroke-width:0.5;stroke-miterlimit:10;}
	.st57{fill:#DADADA;}
	.st58{fill:#E2B759;}
	.st59{fill:#931C14;}
	.st60{fill:#3E4461;}
	.st61{fill:#29235C;}
	.st62{fill:#B71721;}
	.st63{fill:#A9161E;}
	.st64{fill:#A9171E;}
	.st65{fill:none;stroke:#EED9C6;stroke-width:0.25;stroke-miterlimit:10;}
	.st66{fill:#9C1915;}
	.st67{fill:none;stroke:#9C1915;stroke-width:0.25;stroke-miterlimit:10;}
	.st68{fill:#CA9E67;}
	.st69{fill:none;stroke:#1D355E;stroke-miterlimit:10;}
	.st70{clip-path:url(#SVGID_10_);}
	.st71{fill:#706F6F;}
	.st72{fill:none;stroke:#9F9F9F;stroke-width:0.5;stroke-miterlimit:10;}
	.st73{fill:#CBBBA0;}
	.st74{fill:none;stroke:#EAD9C5;stroke-width:0.5;stroke-miterlimit:10;}
	.st75{fill:none;stroke:#F1EDE6;stroke-width:0.5;stroke-miterlimit:10;}
	.st76{fill:#7B94B0;}
	.st77{fill:none;stroke:#D1B493;stroke-width:0.25;stroke-miterlimit:10;}
	.st78{clip-path:url(#SVGID_12_);}
	.st79{fill:#86ACCD;}
	.st80{fill:none;stroke:#B6C2D9;stroke-width:0.5;stroke-miterlimit:10;}
	.st81{fill:#A0151A;}
	.st82{clip-path:url(#SVGID_14_);}
	.st83{fill:#395278;}
	.st84{fill:#AA151D;}
	.st85{fill:#577596;}
	.st86{fill:#DCE2D2;}
	.st87{fill:#A49E83;}
	.st88{fill:#D0D7C8;}
	.st89{fill:#A48A7B;}
	.st90{fill:#CB8A5B;}
	.st91{clip-path:url(#SVGID_16_);}
	.st92{fill:#13203D;}
	.st93{fill:#3E546C;stroke:#3E546C;stroke-width:0.25;stroke-miterlimit:10;}
	.st94{fill:#961418;}
	.st95{fill:#182C4F;}
	.st96{fill:#547192;}
	.st97{fill:#48617D;}
	.st98{fill:#233343;}
	.st99{fill:#354D70;}
	.st100{opacity:0.14;fill:#97C4EA;stroke:#97C4EA;stroke-width:0.5;stroke-miterlimit:10;}
	.st101{fill:#101C36;}
	.st102{fill:#0C162D;}
	.st103{clip-path:url(#SVGID_18_);}
	.st104{fill:#9E151A;}
	.st105{clip-path:url(#SVGID_20_);}
	.st106{clip-path:url(#SVGID_22_);}
	.st107{clip-path:url(#SVGID_24_);}
	.st108{fill:#AD151E;}
	.st109{fill:#F39200;}
	.st110{fill:#FCEA10;}
	.st111{fill:#364E72;}
	.st112{stroke:#000000;stroke-width:0.25;stroke-miterlimit:10;}
	.st113{fill:#1D355E;stroke:#1D355E;stroke-width:0.25;stroke-miterlimit:10;}
	.st114{fill:#FFFFFF;stroke:#1D355E;stroke-width:3;stroke-miterlimit:10;}
	.st115{fill:#97C4EA;stroke:#97C4EA;stroke-width:0.25;stroke-miterlimit:10;}
	.st116{fill:#B0161E;}
	.st117{fill:#A3151B;}
	.st118{fill:#EFCAA6;}
	.st119{fill:#B7905E;}
	.st120{fill:none;}
	.st121{fill:#8B1314;}
	.st122{fill:#587698;}
	.st123{fill:#C13C3D;}
	.st124{clip-path:url(#SVGID_26_);}
	.st125{clip-path:url(#SVGID_26_);fill:#BE1622;stroke:#BE1622;stroke-width:0.5;stroke-miterlimit:10;}
	.st126{clip-path:url(#SVGID_26_);fill:#FFFFFF;stroke:#FFFFFF;stroke-width:0.5;stroke-miterlimit:10;}
	.st127{fill:#97C4EA;stroke:#97C4EA;stroke-width:0.5;stroke-miterlimit:10;}
	.st128{fill:#008D36;stroke:#008D36;stroke-width:0.5;stroke-miterlimit:10;}
	.st129{clip-path:url(#SVGID_28_);}
	.st130{clip-path:url(#SVGID_28_);fill:#3E5983;stroke:#3E5983;stroke-width:0.5;stroke-miterlimit:10;}
	.st131{fill:#385176;}
	.st132{clip-path:url(#SVGID_28_);fill:none;stroke:#BE1622;stroke-width:3;stroke-miterlimit:10;}
	.st133{fill:none;stroke:#4B5E82;stroke-miterlimit:10;}
	.st134{fill:#A8151C;}
	.st135{fill:#006633;stroke:#006633;stroke-width:0.5;stroke-miterlimit:10;}
	.st136{fill:#7D4E24;}
	.st137{fill:#69421C;}
	.st138{fill:#683C11;}
	.st139{fill:none;stroke:#683C11;stroke-width:0.25;stroke-miterlimit:10;}
</style>
<g id="Capa_14">
</g>
<g id="Capa_22">
</g>
<g id="Capa_19">
</g>
<g id="Capa_18">
</g>
<g id="Capa_17">
</g>
<g id="Capa_11">
</g>
<g id="Capa_10">
</g>
<g id="Capa_20">
</g>
<g id="Capa_13">
</g>
<g id="Capa_2">
</g>
<g id="Capa_7">
</g>
<g id="Capa_3">
</g>
<g id="Capa_16">
</g>
<g id="Capa_24">
</g>
<g id="Capa_23">
</g>
<g id="Capa_21">
</g>
<g id="Capa_4">
</g>
<g id="Capa_12">
</g>
<g id="Capa_25">
	<g>
		<g>
			<g>
				<path class="st13" d="M200,99.41c2.65-4.85,6.78-11.32,12.96-18c8.91-9.62,17.54-14.74,19.44-15.84
					c11.62-6.74,22.01-8.8,25.2-9.36c21.56-3.8,38.85,3.37,46.08,6.48c7.15,3.08,21.54,9.47,33.12,24.48
					c15.13,19.62,15.7,41.33,15.84,52.56c0.15,12.23-1.76,29.63-13.68,54.72c-15.12,31.82-45.32,60.77-105.12,117.36
					c-15.45,14.62-31.8,30.08-33.84,32.02"/>
				<g>
					<g>
						<g>
							<g>
								<path class="st13" d="M248.26,300.28c-0.01,0.05,0,0.1,0.03,0.16C248.31,300.34,248.29,300.3,248.26,300.28z"/>
								<path class="st13" d="M276.22,274.63l-0.27,0.35C276.15,274.77,276.21,274.68,276.22,274.63z"/>
								<path class="st13" d="M231.52,315.65c0.02-0.03,0.01-0.04,0.02-0.06c-0.26,0.24-0.61,0.56-1.18,1.08L231.52,315.65z"/>
								<path class="st13" d="M331.17,214.64l-0.29,0.43C331.02,214.87,331.11,214.75,331.17,214.64z"/>
								<path class="st13" d="M299.73,251.42c0.06-0.15,0.22-0.34,0.38-0.53C299.89,251.1,299.73,251.29,299.73,251.42z"/>
								<path class="st13" d="M220.86,321.84l0.6-0.31C221.4,321.49,221.17,321.58,220.86,321.84z"/>
								<path class="st13" d="M204.66,338.24c0.02,0,0.03,0,0.07-0.01C204.74,338.19,204.71,338.21,204.66,338.24z"/>
								<path class="st13" d="M211.72,332.61c0.13-0.15,0.27-0.32,0.41-0.51C211.94,332.29,211.69,332.54,211.72,332.61z"/>
								<path class="st13" d="M212.33,331.86c-0.06,0.08-0.13,0.16-0.19,0.25C212.26,331.98,212.35,331.88,212.33,331.86z"/>
								<path class="st13" d="M199.74,95.05c-0.36,0.58-0.53,1.15-0.73,1.74L199.74,95.05z"/>
								<path class="st13" d="M356.03,144.71l0.07,0.15C356.08,144.72,356.06,144.69,356.03,144.71z"/>
								<path class="st13" d="M200.74,96.62L200.46,97C200.58,96.87,200.66,96.74,200.74,96.62z"/>
								<path class="st13" d="M229.38,313.09c0.36-0.59,1.5-1.37,1.37-1.49C230.26,312.1,229.43,312.68,229.38,313.09z"/>
								<path class="st13" d="M348.61,129.42l-0.05-0.42C348.58,129.19,348.59,129.32,348.61,129.42z"/>
								<path class="st13" d="M200.74,96.62l0.32-0.45c-0.05,0.02-0.11,0.06-0.16,0.09C200.85,96.38,200.8,96.5,200.74,96.62z"/>
								<path class="st13" d="M328.39,73.35c0.01,0.01,0.01,0.01,0.02,0.02c0.05,0.03,0.09,0.05,0.14,0.08L328.39,73.35z"/>
								<path class="st13" d="M325.27,70.47c0.25,0.16,0.49,0.33,0.75,0.51C325.66,70.66,325.44,70.53,325.27,70.47z"/>
								<path class="st13" d="M199.02,96.79l-0.4,1C198.78,97.44,198.91,97.12,199.02,96.79z"/>
								<path class="st13" d="M283.91,52.83c0.14,0.02,0.28,0.04,0.41,0.06C284.15,52.85,284.01,52.83,283.91,52.83z"/>
								<path class="st13" d="M297.52,253.57c-0.08,0.06-0.18,0.15-0.28,0.23C297.25,253.86,297.29,253.86,297.52,253.57z"/>
								<polygon class="st13" points="314,227.9 314,227.89 314,227.89 								"/>
								<path class="st13" d="M313.17,229.29c0.35-0.36,0.69-1,0.83-1.38C313.68,228.29,313.41,228.68,313.17,229.29z"/>
								<path class="st13" d="M316.23,225.31c-0.05,0.04-0.08,0.08-0.14,0.13C316.15,225.39,316.19,225.35,316.23,225.31z"/>
								<path class="st13" d="M294.59,249.07c0,0,0.01,0.01,0.01,0.01c0-0.01,0-0.02,0-0.03L294.59,249.07z"/>
								<path class="st13" d="M298.94,244.41c0.1-0.06,0.23-0.15,0.36-0.26C299.2,244.2,299.08,244.28,298.94,244.41z"/>
								<path class="st13" d="M325.25,212.38c0,0.01,0,0.01,0,0.01c0.01-0.01,0.01-0.02,0.02-0.03
									C325.26,212.37,325.26,212.38,325.25,212.38z"/>
								<path class="st13" d="M346.91,158.02c-0.92,5.74-2.57,13.22-4.69,18.69c-0.08,1.32-0.67,3.1-1.3,4.86l-0.55,0l-0.42,1.51
									c-0.38,0.53,0.35-1.15-0.24-0.18l0.08,0.67c-0.19,0.05-1.68,3.65-0.99,1.1c-0.8,1.86-1.57,3.72-2.44,5.56
									c-0.57,1.21,0.06,0.89-0.68,2.19c-0.26,0.21,0.13-0.53-0.09-0.5c-1.12,1.93-1.51,3.14-1.82,4.38
									c-0.33,1.22-0.59,2.46-1.75,4.19l0.12-0.34c-0.23,0.68-0.92,1.84-0.86,1.89c0.71-0.21,0.13-0.78,1.02-1.73
									c0.32,0.31-0.58,1.49-0.26,1.58c-0.62,0.77-0.69,1.39-1.09,2.14c-0.92,1.14-1.94,2.96-2.8,3.71
									c-0.27,0.67-0.34,1.57-1.15,2.88c-0.88,0.73-0.11-0.39-1.07,0.77l0.07,0.34c-0.74,0.98-0.68,0.79-0.76,0.68
									c-0.76,1.07-0.34,1.09-1.42,2.35l0.33-0.89c-0.62,1.05-0.94,1.43-1.93,2.8c-0.09-0.11,0.3-0.67,0.62-1.05
									c-0.82,0.54-0.78,1.38-1.12,1.75c0.17-0.05,0.93-0.96,0.78-0.35c-0.55,0.64-0.81,1.63-1.42,1.94l0.36-0.88
									c-0.91,1.52-0.32,0.94-1.62,2.49c0.05-0.1-0.03-0.09-0.05-0.16c-0.52,1.21-1.73,2.38-2.97,3.82l0.17-0.32
									c-0.41,0.65-0.5,1.11-0.78,1.42c0.79-0.75,0.67-0.47,0.92-0.4c-1.22,0.85-1,2-2.67,3.65c-0.09-0.12,0.13-0.67,0.66-1.07
									c0.17-0.89-0.04-1.19,0.7-2.42c-0.48,0.75-1.09,1.59-1.09,1.31l0.13,0.46c-0.33,0.42-0.61,0.73-0.87,1.05
									c0.05,0.34,1-0.58,0.34,0.49c-0.79,1.17-0.78,0.32-0.78,0.6c-1.12,1.58-0.19,0.88-1.5,2.21c0.1-0.16,0.28-0.48,0.41-0.58
									c-0.99,0.9-2.08,2.52-2.7,2.51c0.05-0.22-0.04-0.34,0.32-0.7l0.04,0.06c0.69-1.33-0.73,0.99-0.75,0.36
									c0.26,0.09-1,1.47-1.59,2.07l0.39-0.01c-1.2,2.69-0.32-0.49-2.09,1.65c-1.04,1.44,0.51-0.44-0.06,0.5
									c-0.84,0.85-1.33,1-2.4,2.38c-0.41,0.28-1.19,0.91-1.49,0.75c-0.6,0.88-2.27,2.27-2.46,2.92c1.45-1.13,0.99-1.54,2.72-2.82
									l-0.16,0.65c-0.98,1.08-2.17,2.55-2.94,3.21c0.19-0.11,0.31-0.12,0.27,0.02c-1.35,1.6-1.53,2.26-2.99,3.67
									c-0.4-0.01,0.46-0.84,1.03-1.49c-1.07,0.79-0.95,0.98-2.42,2.4c-0.26-0.1,0.95-0.99,0.93-1.33l-1.49,1.69
									c0-0.02-0.02-0.02-0.04-0.04c0.08,0.53-1.23,1.2-2.1,2.28c-2.28,2.34-2.22,3.09-3.24,4.63c-0.42,0.27-0.6,0.29-0.53,0.07
									c0.7-0.44,0.49-0.44,0.61-0.72c-0.74,0.82-1.98,1.43-1.68,0.87c-1.15,1.33,0.61-0.29-0.05,0.56l-1.72,1.68
									c0.36-0.05,0.99-0.61,0.23,0.39c-0.7,0.78-1.09,1.11-2.07,2.07c0.06-0.22-0.54,0.07,0.2-0.65c-0.53,0.41-1.26,1.13-1.4,1.57
									c1.2-0.92-1.61,1.87-0.58,1.32l-1.2,0.92c0.24-0.24,0.17-0.37,0.56-0.7c-0.53,0.07-0.8,0.93-1.15,1.33
									c-0.42,0.32-1.42,1.26-1.59,1.25c-0.27,0.4-1.15,1.16-1.43,1.19c-0.46,0.54,0.11,0.19,0.04,0.41l-1.73,1.66
									c-0.22-0.04-0.72-0.27-0.51-0.57c-0.53,0.76,0.15,0.61-0.84,1.56c0.31-0.8-1.49,1.07-0.97-0.03
									c-0.74,0.36-2.33,1.94-3.16,2.86c-0.35,0.73,1.07-0.81,1.22-0.55c-2.42,2.48-2.02,3.21-3.95,4.87l0.53-0.4
									c-1.03,1.22-0.93,1.07-1.42,1.89c0.07-0.56-1.97,0.56-3.79,2.43c-0.03,0.28,1.29-0.77,1.18-0.27l-1.21,1.24
									c-0.11,0.07-0.01-0.11,0.12-0.3c-1.04,1.17-2.41,1.66-2.45,2.28l-1.5,0.71l0.61-0.27c-0.03,0.28-1.26,1.52-1.47,1.82
									c-1.15,1.37-1.72,1.71-2.58,2.22c0.33-0.11,1.12-0.4,0.14,0.61c-0.39-0.43-2.27,1.87-2.45,1.62
									c-0.41,0.4-1.26,0.95-1.14,1.17l-0.18-0.33c0.25,0.46-1.26,1.86-2.34,3.01c-0.21-0.74-1.22,1.23-2.16,1.26
									c0.11,0.54-1.91,2.06-1.83,2.54c-0.87,0.85-1.08,0.46-1.4,0.56l-0.29,0.52c-0.59,0.26-2.27,1.81-3.36,2.63l-0.63,1.17
									l-0.47,0.19c-0.07,0.21-0.79,0.98-0.22,0.64l-0.51,0.45c0.27,0.37-0.61,0.75-1.47,1.83c-0.28,0.16-0.29,0.03-0.12-0.22
									c-0.5,0.47-0.44,0.1-0.82,0.24c0.43-0.25-1.23,2.27,0.25,1.16c0.22,0.05-0.47,0.88-1.01,1.28l-0.57-0.01l-0.29,0.86
									c-0.72,0.76-1.22,0.89-1.87,1.43c0.61-0.61,0.87-1.89-0.75-0.34c0.82-0.85,1.09-1.41,1.47-1.89
									c-0.35,0.31-0.54,0.44-0.14-0.18c-1.19,1.3-0.26,0.58-1.48,1.81c-0.18-0.33-0.61-0.08-1.8,0.87l1.01-0.59
									c-0.01,0.07-0.04,0.14-0.09,0.22c0.34-0.27,0.47-0.31,0.63-0.27c-0.25,0.23-1.15,1.71-1.52,1.75
									c1.66-0.79-1.92,2.41-0.87,1.89c-0.07,0.21-0.94,1.06-1.15,1.02c0.87-1.2-1.08,0.45-1.08,0.11
									c-0.32,0.45,1.01-0.59,0.58,0.01c-0.61,0.61-1.23,0.89-1.65,1.13l0.22-0.3l-1.08,0.8c-0.04,0.28,1.15-0.67,0.32,0.25
									c-0.29,0.17-1.12,1.08-1.19,0.95c0.26-0.58-0.28-0.53,0.44-1.3c-0.61,0.62-2.6,2.55-1.55,2.03l-0.76,0.71
									c0.58-0.34,2.09-1.39,0.61,0.08l-0.04-0.07l-0.86,1.19l-0.59,0.3c0.08,0.05-0.03,0.27-0.43,0.64
									c-0.18,0.02-0.57,0.33-0.64,0.2c-1.12,1.08-0.9,1.13-0.98,1.35c-0.61,0.62-0.9,0.79-0.76,0.35c-0.9,0.78-2.38,2.25-3.1,2.67
									c-1.05,1.22,0.29-0.17-0.22,0.65c-1.44,0.49-4,3.45-5.84,5.3c0.89-0.09-0.47,0.53-0.48,1.23c0.29-0.51-2.09,1.39-0.54-0.29
									l-0.97,1c-0.9,0.43,1.52-1.75,0.19-1.06c-1.12,1.09-1.45,2.23-2.92,3.34c0.18-0.71-0.94,1.07-0.9,0.44
									c0.18-0.36,0.58-0.68,0.94-1.06l-0.29,0.17c-2.56,2.27-0.4,1.01-1.52,2.44c-1.48,1.47-1.41,0.91-1.62,0.86
									c-0.29,0.17-1.01,0.93-1.34,1.38c0.76-1.05,1.88-1.44,1.62-0.86c-0.97,0.31-2.27,2.1-2.56,2.62c2.49-1.7,1.51-1.4,3.89-2.95
									c0.18-0.37-0.14-0.61,1.19-1.65c-0.63,0.87,0.21,0.11,0.47-0.05c-0.39,0.05,0.78-0.87,1.09-1.29
									c0.47-0.18-0.37,1.08,0.93-0.02l-0.14-0.61c0.54-0.4,0.07,0.48,1.01-0.58c-0.36,0.73,0.47,0.16-0.87,1.54
									c1.98-1.23,2.38-2.59,3.53-3.96c-0.11,0.15-0.07,0.22-0.18,0.36c0.18-0.36,0.69-0.83,1.04-1.22
									c0.94-0.72-0.51,0.81-0.18,0.71l1.37-1.32c0.04-0.01,0.05-0.01,0.06,0c0.31-0.4,0.62-0.76,0.84-0.78
									c-0.29,0.51-0.33,0.8-0.51,1.16l1.19-1.64c-0.04,0.28,1.41-0.91,0.47,0.16l2.09-2.08l0.43,0.09
									c0.47-0.53,0.43-0.6-0.21-0.05c0.79-0.63,2.81-3.54,2.92-2.65c1.48-1.81,2.17-2.3,4.08-4.36c-1.34,1.73,2.09-1.39,0.54,0.29
									c1.08-0.8,1.01-1.28,1.74-2.05c0.83-0.57,0.75,0,0.07,0.83l0.8-0.98l0.03,0.07l0.65-0.9c0.97-0.65,0.43,0.1,1.33-0.69
									l-0.03-0.41l0.72-0.42c-0.32,0.1,0.15-0.43,0.76-1.05l0.04,0.07l0.72-0.77c-0.62,0.86,0.75-0.61,0.56-0.11
									c0.67-0.61,0.68-0.62,1.82-1.78l-0.36,0.04c1.41-1.6,0.29,0.18,1.55-0.99l-0.25-0.11c2.09-1.39,2.88-3.06,4.4-4.12
									c-0.72,0.76-0.33,0.8-0.36,0.73c1.08-1.15,2.99-2.87,3.97-4.21c0.69-0.14,0.86-0.16,2.2-1.19c0.87-0.85,0.97-1,1.12-1.43
									c0.95-0.71,2.41-2.39,2.64-2.23c0.05-0.34,0.8-0.7,1.15-1.28l0.17-0.01l-0.25-0.11c1.91-1.03,2.34-2.67,4.21-3.76l-0.22,0.3
									l0.58-0.68c0.18-0.02-0.04,0.28,0.03,0.42l3.02-2.81l-0.72,0.42c0.61-0.62,0.86-1.2,1.69-1.78c-0.93,1.42,1-0.94,1.4-0.91
									l-0.57,0.68c0.86-0.85,0.86-0.85,0.61-0.97c1.07-1.15,1.11-0.39,1.97-1.59l-0.75,0.7c-0.32,0.1,0.07-0.56,0.57-1.03
									c0.15-0.08,0.58-0.34,0.22,0.05c0.83-0.92,2.26-2.11,2.58-2.56c0.54-0.41,0.5-0.12,0.29,0.18c1.76-1.99,0.9-0.79,2.66-2.79
									l0.07,0.13l0.53-0.76l1.15-0.68l-0.46,0.19c0.61-0.62,0.93-1.07,1.72-1.72l-0.15,0.44c1.68-1.79,2.29-1.71,3.76-3.55
									c0.14-0.08-0.07,0.22-0.18,0.37c1.32-1.75,1.44-0.86,2.71-2.68c-0.05,0.15,0.19,0.04,0.17,0.15l0.61-0.79l0.15,0.26
									l0.28-0.87l0.64-0.21l0.18-0.37c1.14-0.34,1.92-1.69,3.24-2.41l-0.43-0.09c2.09-3.08,6.22-5.59,9.1-8.95l0.15,0.26
									l1.05-1.53c0.85-0.54-0.24,0.59,0.08,0.48c1.25-1.5,0.27-0.88,1.79-2.56c0.95-0.69-0.13,0.44-0.44,0.9
									c1.38-1.62,3.46-3.98,4.62-4.95c0-0.05,0.02-0.15-0.04-0.11c0.91-1.1,2.28-2.38,3.34-3.53c0.07,0.12-0.18,0.42-0.43,0.72
									c0.4-0.4,0.99-0.89,1.22-1.34l-0.22,0.6c0.86-0.84,2.28-2.68,2.68-2.67c-0.18,0.03-0.3-0.16,0.42-0.91
									c0.73-0.11,1.78-2.2,3.07-3.28c-0.06,0.22-0.86,1.14-0.62,0.89c0.65-0.54,1-1.24,1.39-1.87l-0.02,0.29l2.43-3.04
									c0.73-0.12,2.36-2.81,2.43-2.39c0.92-1.04-0.91,0.75,0.2-0.61c0.45-0.23,0.97-1.26,1.14-1.02l-0.1,0.16l0.78-0.94
									l-0.29,0.77c0.65-0.84,0.94-1.61,0.81-1.79c0.78-0.65,1.6-1.82,2.08-2.02l-0.18,0.33c1.69-2.26,3.56-3.14,4.58-5.16
									c0.14-0.1,0.18-0.04-0.04,0.22c0.38-0.44,0.74-0.9,1.1-1.36l-0.08,0.46l1.49-2.51l0.09,0.12c1.2-1.49,2.98-3.9,4.32-5.97
									l-0.16,0.34c1.36-2.33,1.61-2.05,2.6-3.76c-0.01,0.08-0.03,0.14-0.07,0.2c0.35-0.48,0.66-0.99,0.97-1.49l-0.09,0.41
									c0.45-1.28,2.37-2.96,1.71-2.42c0.29-0.7,0.83-1.87,0.8-2.15c1.02-1.65,0.43-0.29,1.15-1.26c0.71-1.21,0.62-1.55,1.68-3.14
									l0.11,0.11c0.42-0.79,0.61-1.32,1.2-2.41l-0.12,0.35c0.71-1.91,1.54-2.05,1.72-3.75c0.49-0.71,1.14-2.19,1.36-1.99
									c0.95-2.35,1.65-4.15,2.57-6.47c0.59-0.18,0.18-0.5,1.03-1.79l-0.28,0c1.38-3.23,3.4-6.8,4.61-10.53l0.28-0.02l-0.02-0.84
									c1.51-3.93,3.06-9.19,3.81-12.49c0.14-1.11,0.18-2.81,0.6-4.52l0,0.19c0.41-3.04,0.84-6.25,1.29-9.56
									c0.08,0.22,0.2-0.11,0.22,0.27c-0.18-0.82,0.16-1.96,0.23-2.68l-0.26,0.83c-0.16-0.97,0.17-2.31,0.37-2.79l-0.2-1.52
									c0.03-0.1,0.08-0.25,0.12-0.27l-0.13-0.27l0.35-0.79c-0.05-0.38-0.11-2.37-0.44-2.99c0.11-0.14,0.2-1.55,0.26-0.46
									c0.02-1.81,0.02-3.59-0.01-5.41l-0.09,0.85c-0.24,0.11-0.46-1.51-0.39-2.36c0.25,1.1,0.37,0.08,0.53-0.41
									c-0.17-0.73-0.2,0.66-0.35,0.27c-0.19-0.92-0.44-2.88-0.35-3.39l0.14,0.55c-0.17-1.26,0.2-1.88,0.06-3.13
									c-0.3-1.1-0.23-1.95-0.63-1.67c-0.29-1.61,0.22-0.66,0.19-1.19c-0.28-0.74-0.5-3.01-0.33-3.34
									c-0.73-0.78-0.58-4.39-1.17-4.61c0.02-0.46,0-0.92,0-1.38c-0.15-0.01-0.53-0.2-0.85-1.24c-0.09-1.04,0.21-0.86,0.28-1.2
									c-0.23-0.18-0.45-0.36-0.7-0.53c-0.54-2.92-1.5-6.26-2.85-9.52c-1.27-3.3-2.92-6.52-4.33-9.5c-0.8-1.23-1.78-2.58-2.75-3.99
									c-1.05-1.36-2.11-2.78-3.11-4.17c0.1,0.09,0.2,0.17,0.29,0.25l-2.02-2.74l1.36,2.07c-0.52-0.54-0.96-0.92-1.4-1.48
									c-2.19-3-5.49-6.81-9.19-9.55c-1.32-0.74-1.64-1.11-1.91-1.54c-0.28-0.41-0.52-0.87-1.8-1.53c0.23,0.1,0.36,0.08,0.57,0.16
									c-2.6-1.65-4.02-2.52-6.8-3.81c0.62-0.35-1.7-1.01-1.31-1.14l-0.35,0.09c-0.5-0.48-1.87-1.3-1.58-1.34l-1.33-0.37l0.02-0.28
									c-1.56-0.87-5.08-2.32-5.71-3.16c-2.08-0.72-4.61-1.75-7.39-2.84c-2.77-1.08-5.71-2.13-8.36-2.95
									c-0.81,0.01-2.37-0.44-3.61-0.69l-1.25-0.61c-1.28-0.22-2.7-0.06-3.84-0.49c0.01-0.03,0.07-0.05,0.15-0.05
									c-1.3-0.16-2.52-0.5-3.76-0.41c-1.42-0.17-2.8-0.48-2.33-0.72c-0.1,0.25-0.85,0.12-1.59,0c-0.74-0.13-1.46-0.32-1.46-0.32
									s-0.29-0.02-0.84-0.07c-0.55-0.06-1.35-0.09-2.39-0.11c-1.03-0.02-2.3-0.09-3.75-0.03c-0.73,0.02-1.51,0.04-2.33,0.06
									c-0.82,0.04-1.69,0.13-2.59,0.19c-1.82,0.1-3.78,0.43-5.87,0.71c-2.1,0.34-4.31,0.83-6.57,1.43c-4.53,1.2-9.3,2.93-14,5.17
									c-2.36,1.11-4.66,2.38-6.96,3.74c-2.29,1.4-4.45,2.91-6.52,4.49c-4.14,3.16-7.87,6.63-11.07,10.08
									c-6.4,6.94-10.46,13.86-12.13,17.99c-0.1,0.64-0.78,2.13-0.21,1.74c-0.55,1.14-1.2,1.43-1.11,1.77
									c0.98-1.41,0.31,0.77,1.39-0.53l-0.46,0.96c0.05,0.28,0.53-1.36,0.68-0.98l-0.26-0.49c0.49-0.72,0.82-1.07,1.11-1.25
									c0.26-0.78-0.02-1.57,1.26-3.06l-0.27,0.47c0.84-1.34,0.78-0.65,1.02-0.89l-0.19,0.29l0.93-0.98
									c-0.7,0.75-1.27,2.35-0.82,1.61c1.12-1.5-0.36,0.35,0.36-0.86c0.46-0.74,0.53-0.4,0.63-0.29l0.86-1.3
									c0.15,0.17-0.59,0.85-0.05,0.45l0.94-1.74c0.65,0.02,1.05-1.89,2.01-2.29c-0.75,1.2,0.22,0.01,0.23,0.3
									c0.69-0.92,1.4-1.82,2.13-2.71c0.26-0.2-0.44,0.81-0.13,0.39c0.53-0.41,0.58-0.9,0.81-1.17c0.3-0.14,1.68-1.95,1.9-1.63
									c1.75-1.56,0.32-1.04,1.97-2.48c0.36-0.05-1.15,1.29-0.32,0.75c0.5-0.56,0.99-1.13,1.51-1.67
									c-0.07,0.22-0.06,0.55-0.68,1.13c2.22-2.08,4.19-3.39,6.07-4.66c1.89-1.26,3.7-2.47,5.81-4.21
									c0.78-0.24-0.35,0.46-0.67,0.94c2.96-2.65,4.84-2.78,7.63-4.49l-0.06-0.22c4.34-1.74,9.21-4.47,14.29-5.87l-0.64,0.06
									c0.61-0.43,1.71-0.82,2.51-1.16c0.16,0.07-0.46,0.62,0.97,0.1c-0.32,0.01-0.96,0.13-0.81-0.03c2.24-0.38,5.61-1.23,9.4-1.69
									c3.78-0.57,7.97-0.77,11.62-0.57c4.94,0,10.1,0.64,15.1,1.89c5.02,1.21,9.85,2.93,14.44,4.79c-1.4-0.56-0.61-0.81,0.4-0.26
									c2.54,2.07,5.09,2.01,7.64,3.98c2.62,1.15,4.91,2.58,7.08,4.06c2.18,1.48,4.27,2.95,6.53,4.33l-0.08,0.26
									c0.54,0.57,0.82,0.56,1.46,1.08l-0.06,0.04c1.43,1.31,3.31,2.74,4.03,3.6l0.25-0.15c0.83,0.81,0.26,0.59,1.21,1.32
									l-0.13,0.08c0.38,0.27,0.79,0.52,1.15,0.81c-0.47,0.25,2.17,2.44,2.54,3.34c1.05,1.07,2.88,3.26,4.1,5.18
									c0,0.25,0.38,0.96,0.85,1.81c0.48,0.84,1.06,1.81,1.41,2.63c1.82,2.92,3.92,7.4,5.26,11.6l0.28-0.18l0.4,1.08
									c-0.07,0.01-0.06,0.16-0.15,0.01c-0.05,0.95,0.87,2.52,0.92,3.47c0.12-0.64-0.18-0.79-0.36-1.42
									c-0.12-0.95,0.44-0.18,0.65,1.1l-0.08-0.01l0.41,0.8c-0.22,0.16-0.15,0.96-0.37,1.12c0.99,3.65,1.86,6.15,2.27,10.09
									c-0.33-0.37,0.41,2.82-0.18,2.08c0.41,2.35,0.36-0.43,0.81,0.62c0.05,0.67,0.26,1.35,0.08,1.49
									c-0.15-0.3-0.25,0.56-0.35,0.03c0.07,0.53,0.1,1.06,0.15,1.59c-0.03,0.15-0.12-0.19-0.16-0.36c0.52,3.23-0.03,5.77,0.3,8.74
									c0.18,0.22,0.03-1.18,0.22-0.97c0.39,2.98-0.28,2.6-0.08,5.34l-0.23-0.57c0.15,0.88,0.36,1.28,0.08,2.71
									c-0.31,0.24-0.17-1.23-0.29-1.93c-0.04,0.99-0.1,3.49,0.2,2.74c0.02,1.19-0.29,1.6-0.41,2.23c0.07,0.03,0.28-1.09,0.36-0.38
									c-0.28,1.6-0.56,4.08-0.87,6.03c-0.07-0.03-0.2,0.09-0.21-0.08C347.82,156.13,347.18,155.86,346.91,158.02z"/>
								<path class="st13" d="M293.98,249.63l0.61-0.56c-0.05-0.04-0.07-0.12,0.14-0.45L293.98,249.63z"/>
								<path class="st13" d="M319.8,220.39c0.04-0.1,0.09-0.19,0.11-0.28C319.81,220.27,319.79,220.34,319.8,220.39z"/>
								<path class="st13" d="M324.93,212.47c-0.33,0.59,0.07,0.14,0.32-0.09C325.21,212.34,325.15,212.31,324.93,212.47z"/>
								<path class="st13" d="M278.89,265.96c0.08-0.12,0.12-0.21,0.06-0.24C278.85,265.9,278.85,265.95,278.89,265.96z"/>
								<path class="st13" d="M234.33,308.41c0.07-0.04,0.13-0.08,0.21-0.14C234.49,308.28,234.42,308.33,234.33,308.41z"/>
								<path class="st13" d="M237.12,306.39c0.12-0.11,0.27-0.27,0.48-0.51C237.37,306.08,237.22,306.25,237.12,306.39z"/>
								<path class="st13" d="M289.34,255.35c0.15-0.17,0.29-0.35,0.38-0.53C289.48,255.08,289.39,255.23,289.34,255.35z"/>
								<path class="st13" d="M238.07,305.35l0.64-0.57c-0.01-0.02-0.01-0.03-0.03-0.05L238.07,305.35z"/>
								<path class="st13" d="M233.52,309.12c0.25-0.22,0.58-0.54,0.81-0.72C233.97,308.64,233.72,308.87,233.52,309.12z"/>
								<path class="st13" d="M262.96,281.97c0.02-0.02,0.04-0.04,0.06-0.07C263.42,281.35,263.15,281.68,262.96,281.97z"/>
								<path class="st13" d="M240.45,302.4c0.03-0.02,0.06-0.05,0.09-0.07l0.13-0.23L240.45,302.4z"/>
								<path class="st13" d="M230.75,311.59c0.11-0.12,0.21-0.23,0.28-0.33c-0.1,0.09-0.22,0.18-0.38,0.31
									C230.71,311.57,230.73,311.58,230.75,311.59z"/>
								<path class="st13" d="M253.34,290.55c-0.1,0.25-0.12,0.36-0.08,0.41C253.46,290.76,253.56,290.6,253.34,290.55z"/>
							</g>
						</g>
					</g>
				</g>
			</g>
			<g>
				<path class="st13" d="M200,100.45c-2.65-4.85-6.78-11.32-12.96-18c-8.91-9.62-17.54-14.74-19.44-15.84
					c-11.62-6.74-22.01-8.8-25.2-9.36c-21.56-3.8-38.85,3.37-46.08,6.48c-7.15,3.08-21.54,9.47-33.12,24.48
					c-15.13,19.62-15.7,41.33-15.84,52.56c-0.15,12.23,1.76,29.63,13.68,54.72c15.12,31.82,45.32,60.77,105.12,117.36
					c15.45,14.62,31.8,30.08,33.84,32.02"/>
				<g>
					<g>
						<g>
							<g>
								<path class="st13" d="M153.87,299.07c0.05,0,0.1,0,0.15-0.03C153.93,299.02,153.89,299.04,153.87,299.07z"/>
								<path class="st13" d="M127.12,272.24l0.36,0.26C127.27,272.31,127.17,272.25,127.12,272.24z"/>
								<path class="st13" d="M170.12,314.95c-0.03-0.01-0.04-0.01-0.06-0.01c0.25,0.24,0.59,0.58,1.14,1.11L170.12,314.95z"/>
								<path class="st13" d="M74.36,211.94l0.29,0.41C74.52,212.16,74.45,212.04,74.36,211.94z"/>
								<path class="st13" d="M104.19,248.73c-0.14-0.07-0.33-0.24-0.51-0.4C103.88,248.55,104.06,248.72,104.19,248.73z"/>
								<path class="st13" d="M176.89,325.25l-0.34-0.58C176.51,324.74,176.61,324.96,176.89,325.25z"/>
								<path class="st13" d="M194.16,340.53c0-0.02,0-0.03-0.01-0.07C194.11,340.45,194.13,340.48,194.16,340.53z"/>
								<path class="st13" d="M188.15,333.79c-0.15-0.12-0.34-0.25-0.53-0.38C187.82,333.59,188.08,333.83,188.15,333.79z"/>
								<path class="st13" d="M187.36,333.23c0.08,0.06,0.17,0.12,0.26,0.18C187.49,333.29,187.38,333.2,187.36,333.23z"/>
								<path class="st13" d="M196.15,98.56c0.32,0.56,0.73,0.96,1.12,1.41L196.15,98.56z"/>
								<path class="st13" d="M50.86,145.5l0.09,0.14C50.92,145.5,50.89,145.48,50.86,145.5z"/>
								<path class="st13" d="M197.98,98.41l0.2,0.42C198.13,98.67,198.06,98.53,197.98,98.41z"/>
								<path class="st13" d="M167.68,317.24c-0.61-0.32-1.45-1.42-1.57-1.28C166.64,316.42,167.27,317.2,167.68,317.24z"/>
								<path class="st13" d="M44.22,129.86l0.03-0.46C44.23,129.62,44.22,129.76,44.22,129.86z"/>
								<path class="st13" d="M197.98,98.41l-0.23-0.49c-0.01,0.06,0,0.12,0,0.19C197.83,98.2,197.91,98.3,197.98,98.41z"/>
								<path class="st13" d="M76.15,79.79c-0.01,0.01-0.01,0.01-0.02,0.02c-0.03,0.04-0.06,0.08-0.09,0.12L76.15,79.79z"/>
								<path class="st13" d="M79.34,77.63c-0.21,0.17-0.39,0.36-0.61,0.55C79.08,77.93,79.24,77.76,79.34,77.63z"/>
								<path class="st13" d="M197.27,99.96l0.63,0.81C197.7,100.47,197.48,100.21,197.27,99.96z"/>
								<path class="st13" d="M117.35,60.87c-0.13,0.03-0.25,0.07-0.37,0.1C117.14,60.94,117.26,60.91,117.35,60.87z"/>
								<path class="st13" d="M106.22,251.01c0.06,0.08,0.14,0.19,0.22,0.28C106.49,251.29,106.5,251.25,106.22,251.01z"/>
								<polygon class="st13" points="82.35,231.97 82.34,231.96 82.34,231.96 								"/>
								<path class="st13" d="M83.55,233.08c-0.29-0.42-0.85-0.9-1.2-1.11C82.67,232.37,83,232.71,83.55,233.08z"/>
								<path class="st13" d="M80.22,229.2c0.03,0.05,0.06,0.1,0.1,0.16C80.29,229.31,80.26,229.26,80.22,229.2z"/>
								<path class="st13" d="M101.59,253.78c0,0,0.01-0.01,0.01-0.01c-0.01,0-0.02,0-0.03,0L101.59,253.78z"/>
								<path class="st13" d="M97.15,249.11c-0.05-0.11-0.14-0.24-0.24-0.38C96.95,248.84,97.03,248.96,97.15,249.11z"/>
								<path class="st13" d="M70.12,216.6c0.01,0.01,0.01,0,0.01,0c-0.01-0.01-0.01-0.01-0.02-0.03
									C70.12,216.58,70.12,216.59,70.12,216.6z"/>
								<path class="st13" d="M44.86,160.55c1.22,6.2,3.74,13.91,5.74,19.73c0.83,1.13,1.47,2.97,2.29,4.75l-0.4,0.38l0.75,1.46
									c0.1,0.68-0.55-1.13-0.3,0.03l0.52,0.45c-0.14,0.2,1.53,3.91,0.11,1.53c0.83,1.95,1.65,3.9,2.55,5.81
									c0.57,1.28,0.73,0.57,1.26,2.02c0,0.35-0.32-0.46-0.44-0.27c0.82,2.19,1.71,3.29,2.53,4.34c0.84,1.05,1.62,2.07,2.63,4
									l-0.24-0.29c0.49,0.58,1.17,1.81,1.24,1.79c0.17-0.74-0.63-0.54-1.03-1.84c0.44-0.11,1.02,1.32,1.27,1.08
									c0.37,0.96,0.88,1.35,1.34,2.1c0.48,1.47,1.87,3.14,2.18,4.29c0.51,0.55,1.31,1.01,2.18,2.33c0.34,1.13-0.43-0.03,0.34,1.3
									l0.35,0.06c0.69,1.06,0.52,0.93,0.4,0.96c0.77,1.11,0.93,0.72,1.77,2.2l-0.74-0.63c0.8,0.97,1.05,1.42,2.04,2.86
									c-0.14,0.06-0.53-0.53-0.8-0.97c0.23,1,1.07,1.23,1.35,1.66c0-0.18-0.69-1.17-0.13-0.85c0.48,0.71,1.38,1.26,1.52,1.93
									l-0.76-0.61c1.25,1.32,0.83,0.58,2,2.28c-0.08-0.08-0.1,0-0.17,0c1.05,0.84,1.82,2.4,3.04,3.9l-0.28-0.24
									c0.56,0.55,1,0.74,1.25,1.08c-0.58-0.94-0.33-0.76-0.21-0.98c0.59,1.39,1.77,1.42,3.07,3.4c-0.13,0.06-0.63-0.27-0.92-0.87
									c-0.84-0.36-1.18-0.21-2.25-1.21c0.64,0.64,1.36,1.42,1.08,1.36l0.48-0.03c0.35,0.42,0.6,0.76,0.86,1.08
									c0.34,0.02-0.38-1.11,0.54-0.24c0.99,1.02,0.16,0.85,0.44,0.9c1.38,1.4,0.85,0.34,1.97,1.85c-0.15-0.12-0.44-0.35-0.52-0.5
									c0.76,1.12,2.21,2.46,2.11,3.07c-0.21-0.08-0.34-0.02-0.65-0.43l0.07-0.03c-1.23-0.9,0.88,0.88,0.25,0.81
									c0.13-0.25,1.32,1.23,1.84,1.91l0.04-0.4c2.53,1.56-0.55,0.28,1.42,2.29c1.34,1.19-0.39-0.55,0.5,0.12
									c0.77,0.93,0.88,1.43,2.16,2.66c0.24,0.44,0.8,1.29,0.62,1.57c0.81,0.72,2.09,2.51,2.75,2.72
									c-1.06-1.52-1.51-1.09-2.63-2.97l0.64,0.23c0.97,1.12,2.4,2.38,3.02,3.2c-0.1-0.19-0.1-0.32,0.04-0.27
									c1.53,1.45,2.18,1.67,3.52,3.23c-0.03,0.4-0.81-0.51-1.43-1.13c0.74,1.12,0.94,1.02,2.27,2.58
									c-0.11,0.26-0.94-1.02-1.28-1.02l1.62,1.6c-0.02,0-0.02,0.02-0.04,0.04c0.54-0.06,1.18,1.27,2.24,2.17
									c2.29,2.36,3.05,2.32,4.57,3.38c0.26,0.43,0.28,0.61,0.06,0.54c-0.43-0.71-0.43-0.5-0.71-0.63c0.8,0.76,1.39,2.03,0.84,1.71
									c1.33,1.16-0.29-0.61,0.57,0.06l1.68,1.73c-0.05-0.36-0.61-0.99,0.39-0.22c0.79,0.7,1.11,1.09,2.08,2.08
									c-0.22-0.07,0.07,0.54-0.65-0.2c0.41,0.53,1.14,1.27,1.57,1.4c-0.92-1.21,1.88,1.61,1.32,0.58l0.92,1.21
									c-0.24-0.25-0.37-0.17-0.7-0.56c0.07,0.54,0.94,0.8,1.33,1.15c0.33,0.42,1.29,1.4,1.28,1.57c0.4,0.27,1.18,1.13,1.22,1.41
									c0.55,0.45,0.19-0.11,0.41-0.05l1.7,1.7c-0.04,0.22-0.25,0.73-0.56,0.52c0.77,0.52,0.61-0.16,1.58,0.82
									c-0.81-0.3,1.11,1.47-0.01,0.97c0.38,0.74,1.99,2.31,2.95,3.1c0.75,0.33-0.85-1.05-0.59-1.2c2.57,2.34,3.28,1.92,5.02,3.79
									l-0.42-0.52c1.26,0.99,1.1,0.89,1.94,1.36c-0.57-0.05,0.63,1.95,2.56,3.71c0.28,0.02-0.81-1.26-0.31-1.17l1.29,1.17
									c0.07,0.11-0.11,0.02-0.3-0.1c1.21,0.98,1.77,2.34,2.38,2.35l0.78,1.47l-0.3-0.59c0.28,0.02,1.58,1.19,1.88,1.39
									c1.42,1.09,1.78,1.65,2.33,2.49c-0.12-0.32-0.45-1.1,0.6-0.17c-0.41,0.41,1.97,2.19,1.74,2.38
									c0.42,0.39,1.02,1.21,1.23,1.08l-0.32,0.2c0.44-0.27,1.92,1.16,3.13,2.19c-0.73,0.25,1.29,1.16,1.37,2.09
									c0.54-0.13,2.16,1.8,2.63,1.7c0.9,0.82,0.51,1.05,0.63,1.37l0.53,0.26c0.29,0.58,1.93,2.17,2.81,3.22l1.2,0.57l0.21,0.46
									c0.22,0.06,1.02,0.74,0.66,0.18l0.48,0.49c0.35-0.29,0.78,0.57,1.91,1.37c0.18,0.27,0.04,0.29-0.21,0.13
									c0.49,0.47,0.12,0.44,0.29,0.8c-0.27-0.42,2.34,1.1,1.14-0.31c0.03-0.22,0.9,0.42,1.34,0.94l0.02,0.57l0.88,0.24
									c0.8,0.68,0.95,1.17,1.53,1.79c-0.65-0.58-1.94-0.77-0.3,0.77c-0.89-0.77-1.47-1.01-1.97-1.37
									c0.33,0.33,0.47,0.52-0.17,0.15c1.36,1.12,0.6,0.22,1.89,1.38c-0.32,0.2-0.04,0.61,0.97,1.75l-0.64-0.97
									c0.07,0,0.15,0.03,0.22,0.08c-0.29-0.32-0.33-0.45-0.31-0.61c0.25,0.24,1.77,1.06,1.83,1.42c-0.88-1.61,2.51,1.78,1.94,0.77
									c0.22,0.06,1.11,0.88,1.08,1.1c-1.24-0.8,0.51,1.05,0.17,1.07c0.46,0.3-0.64-0.98-0.02-0.58c0.64,0.58,0.95,1.17,1.22,1.59
									l-0.31-0.2l0.86,1.04c0.28,0.02-0.73-1.11,0.23-0.33c0.18,0.28,1.14,1.06,1.02,1.14c-0.6-0.22-0.51,0.31-1.32-0.37
									c0.65,0.58,2.69,2.45,2.11,1.44l0.75,0.72c-0.37-0.56-1.5-2.01,0.04-0.62l-0.06,0.04l1.24,0.8l0.33,0.57
									c0.05-0.08,0.27,0.02,0.66,0.39c0.03,0.18,0.37,0.55,0.24,0.63c1.14,1.06,1.18,0.84,1.4,0.9c0.65,0.58,0.84,0.86,0.39,0.73
									c0.83,0.86,2.38,2.25,2.84,2.95c1.27,0.98-0.19-0.28,0.66,0.18c0.57,1.41,3.66,3.8,5.61,5.54
									c-0.13-0.89,0.56,0.44,1.25,0.41c-0.53-0.26,1.5,2.01-0.26,0.55l1.05,0.92c0.48,0.87-1.83-1.42-1.07-0.13
									c1.15,1.06,2.3,1.32,3.5,2.74c-0.72-0.14,1.12,0.88,0.49,0.88c-0.37-0.16-0.71-0.54-1.11-0.88l0.18,0.28
									c2.41,2.43,1.04,0.35,2.52,1.38c1.55,1.4,0.98,1.35,0.94,1.57c0.18,0.28,0.99,0.96,1.46,1.26c-1.09-0.7-1.54-1.79-0.94-1.57
									c0.36,0.95,2.22,2.15,2.75,2.42c-1.84-2.39-1.48-1.43-3.17-3.72c-0.38-0.16-0.6,0.17-1.71-1.1c0.9,0.58,0.1-0.21-0.07-0.46
									c0.08,0.39-0.91-0.73-1.35-1.01c-0.21-0.46,1.1,0.31-0.08-0.93l-0.6,0.17c-0.43-0.52,0.48-0.09-0.64-0.97
									c0.75,0.32,0.13-0.48,1.59,0.78c-1.34-1.91-2.72-2.23-4.14-3.31c0.16,0.1,0.22,0.06,0.37,0.16
									c-0.37-0.16-0.87-0.64-1.27-0.98c-0.77-0.9,0.84,0.46,0.72,0.14l-1.39-1.3c-0.02-0.04-0.02-0.05-0.01-0.06
									c-0.41-0.29-0.79-0.58-0.83-0.8c0.53,0.26,0.81,0.28,1.19,0.44l-1.71-1.1c0.28,0.02-0.98-1.35,0.14-0.47l-2.19-1.97
									l0.07-0.44c-0.56-0.44-0.62-0.4-0.04,0.21c-0.67-0.75-3.69-2.61-2.81-2.77c-1.89-1.38-2.41-2.04-4.58-3.83
									c1.8,1.24-1.5-2.01,0.26-0.55c-0.86-1.04-1.34-0.94-2.14-1.62c-0.61-0.79-0.05-0.75,0.82-0.11l-1.03-0.74l0.07-0.04
									l-0.93-0.6c-0.7-0.94,0.07-0.43-0.76-1.29l-0.41,0.06l-0.46-0.69c0.12,0.32-0.44-0.12-1.09-0.7l0.06-0.04l-0.81-0.68
									c0.89,0.57-0.65-0.71-0.14-0.55c-0.64-0.63-0.66-0.64-1.88-1.72l0.06,0.36c-1.67-1.32,0.16-0.3-1.07-1.49l-0.1,0.26
									c-1.5-2.01-3.21-2.71-4.35-4.17c0.8,0.68,0.81,0.28,0.75,0.32c-1.21-1.02-3.02-2.83-4.42-3.73
									c-0.18-0.68-0.2-0.85-1.31-2.13c-0.9-0.82-1.05-0.92-1.49-1.04c-0.76-0.92-2.51-2.29-2.36-2.52
									c-0.34-0.03-0.74-0.76-1.33-1.08l-0.02-0.17l-0.1,0.25c-1.12-1.85-2.78-2.2-3.97-4.02l0.31,0.2l-0.71-0.54
									c-0.03-0.18,0.28,0.02,0.41-0.05l-2.96-2.88l0.45,0.7c-0.64-0.58-1.24-0.81-1.85-1.61c1.46,0.87-0.98-0.96-0.97-1.35
									l0.71,0.54c-0.89-0.82-0.89-0.82-0.99-0.57c-1.2-1.02-0.44-1.09-1.68-1.9l0.74,0.72c0.12,0.32-0.56-0.04-1.05-0.53
									c-0.09-0.14-0.36-0.56,0.04-0.22c-0.96-0.78-2.21-2.16-2.67-2.47c-0.43-0.52-0.14-0.5,0.16-0.3
									c-2.06-1.67-0.83-0.86-2.89-2.54l0.13-0.07l-0.77-0.51l-0.72-1.12l0.2,0.46c-0.64-0.58-1.1-0.89-1.77-1.65l0.44,0.13
									c-1.84-1.62-1.79-2.23-3.67-3.63c-0.09-0.14,0.22,0.06,0.38,0.17c-1.79-1.26-0.91-1.4-2.74-2.63
									c0.15,0.04,0.04-0.19,0.14-0.17l-0.8-0.59l0.26-0.15l-0.87-0.26l-0.22-0.64l-0.37-0.17c-0.36-1.13-1.72-1.88-2.46-3.19
									l-0.08,0.43c-3.15-2-5.6-6.17-8.95-9.02l0.26-0.15l-1.52-1.04c-0.52-0.85,0.59,0.24,0.48-0.08
									c-1.47-1.27-0.87-0.28-2.5-1.83c-0.66-0.96,0.43,0.14,0.88,0.46c-1.57-1.41-3.86-3.53-4.79-4.72
									c-0.05,0-0.15-0.03-0.11,0.04c-1.09-0.91-2.25-2.36-3.33-3.47c0.12-0.06,0.4,0.2,0.69,0.46c-0.37-0.42-0.82-1.03-1.25-1.29
									l0.58,0.25c-0.78-0.9-2.51-2.41-2.48-2.8c0.02,0.18-0.18,0.28-0.88-0.47c-0.08-0.7-2.03-1.93-2.96-3.31
									c0.21,0.07,1.04,0.95,0.81,0.7c-0.47-0.69-1.12-1.1-1.7-1.55l0.28,0.05l-2.76-2.68c-0.07-0.7-2.42-2.68-2.01-2.69
									c-0.88-1.05,0.6,1-0.56-0.28c-0.16-0.47-1.09-1.13-0.82-1.26l0.15,0.12l-0.8-0.9l0.71,0.39c-0.72-0.75-1.44-1.14-1.64-1.04
									c-0.53-0.85-1.54-1.83-1.61-2.35l0.28,0.24c-1.83-2.07-2.28-4.04-4.02-5.42c-0.07-0.15,0-0.18,0.21,0.09
									c-0.36-0.44-0.71-0.89-1.04-1.35l0.41,0.19l-1.96-2.04l0.14-0.06c-1.07-1.51-2.91-3.76-4.28-5.71l0.26,0.25
									c-1.67-2-1.32-2.13-2.54-3.6c0.07,0.03,0.12,0.08,0.17,0.13c-0.34-0.46-0.64-0.94-0.94-1.42l0.32,0.24
									c-0.94-0.9-1.59-3.26-1.4-2.46c-0.5-0.53-1.3-1.48-1.57-1.56c-1.01-1.56-0.1-0.47-0.58-1.52c-0.65-1.17-0.98-1.25-1.78-2.89
									l0.14-0.04c-0.44-0.72-0.8-1.13-1.4-2.15l0.24,0.27c-1.2-1.55-0.72-2.33-1.99-3.38c-0.26-0.77-1.04-2.1-0.74-2.16
									c-1.23-2.07-2.08-3.77-3.17-5.92c0.28-0.54-0.23-0.46-0.55-1.91l-0.19,0.2c-1.4-3.11-2.18-6.98-3.52-10.44l0.21-0.18
									l-0.5-0.62c-1.22-3.82-2.49-8.82-3.18-11.91c-0.38-0.98-1-2.46-1.23-4.1l0.07,0.16c-0.67-2.79-1.27-5.78-1.41-8.91
									c0.13,0.18,0.17-0.13,0.28,0.21c-0.37-0.71-0.18-1.82-0.22-2.48l-0.13,0.8c-0.31-0.87-0.18-2.16,0-2.62l-0.34-1.39
									c0.02-0.09,0.05-0.24,0.09-0.26l-0.14-0.24l0.32-0.76c-0.09-0.34-0.2-2.2-0.51-2.78c0.11-0.14,0.2-1.45,0.26-0.43
									c0.04-1.73,0.12-3.49,0.2-5.21l-0.14,0.81c-0.26,0.09-0.37-1.48-0.21-2.28c0.16,1.07,0.36,0.1,0.56-0.34
									c-0.11-0.71-0.25,0.6-0.38,0.22c-0.15-0.9-0.09-2.77,0.05-3.23l0.07,0.53c-0.02-1.21,0.49-1.71,0.57-2.88
									c-0.12-1.07,0.18-1.82-0.28-1.66c0.1-1.53,0.37-0.55,0.47-1.03c-0.14-0.74,0.32-2.83,0.59-3.05
									c-0.54-0.94,0.97-3.96,0.5-4.37c0.17-0.39,0.38-0.77,0.57-1.14c-0.13-0.07-0.39-0.38-0.21-1.38
									c0.38-0.89,0.57-0.6,0.78-0.84c-0.12-0.25-0.25-0.5-0.36-0.75c1.04-2.55,1.99-5.57,3.29-8.51c1.21-2.98,2.76-5.88,4.41-8.34
									c0.62-1.16,1.37-2.46,2.13-3.82c0.85-1.3,1.75-2.64,2.71-3.86c-0.05,0.1-0.11,0.2-0.16,0.31l2.05-2.3l-1.6,1.58
									c0.38-0.56,0.63-1.03,1.04-1.54c2.34-2.47,5.65-5.51,8.67-8.38c0.82-1.13,1.29-1.27,1.72-1.42
									c0.45-0.14,0.86-0.28,1.77-1.22c-0.14,0.18-0.16,0.29-0.28,0.46c2.12-1.8,3.29-2.77,5.49-4.55
									c0.04,0.68,1.56-0.95,1.51-0.54l0.08-0.33c0.61-0.2,1.92-0.86,1.83-0.59l0.94-0.87l0.21,0.17c1.45-0.76,4.57-2.49,5.58-2.36
									c1.79-1.01,4.27-2.17,6.83-3.18c2.57-1.02,5.32-1.88,7.78-2.55c0.64-0.37,2.06-0.83,3.19-1.09l1.28,0.01
									c1.12-0.37,2.29-0.95,3.4-0.98c0,0.04-0.04,0.07-0.11,0.1c1.17-0.27,2.32-0.26,3.39-0.71c1.31-0.13,2.59-0.1,2.22,0.22
									c0.04-0.25,0.73-0.34,1.41-0.29c0.68,0.04,1.35,0.14,1.35,0.14s0.26-0.01,0.75-0.03c0.49-0.04,1.22-0.05,2.15-0.04
									c0.93,0.01,2.06-0.03,3.36,0.06c0.65,0.03,1.35,0.07,2.08,0.1c0.73,0.05,1.5,0.15,2.31,0.23c1.62,0.12,3.36,0.46,5.22,0.73
									c1.84,0.33,3.78,0.79,5.81,1.35c4.04,1.12,8.35,2.7,12.59,4.7c2.12,0.98,4.23,2.13,6.27,3.3c2.01,1.19,4.01,2.53,5.93,3.92
									c3.85,2.78,7.39,5.83,10.52,8.83c6.26,6.01,10.71,11.93,13.45,15.17c0.51,0.35,1.43,1.63,1.39,0.96
									c0.69,1.01,0.56,1.71,0.9,1.79c-0.66-1.52,0.82,0.14,0.3-1.43l0.56,0.88c0.26,0.1-0.87-1.14-0.46-1.08l-0.55-0.03
									c-0.35-0.77-0.51-1.21-0.53-1.55c-0.57-0.59-1.36-0.7-2.14-2.43l0.31,0.42c-0.85-1.28-0.26-0.96-0.37-1.27l0.18,0.29
									l-0.52-1.22c0.42,0.9,1.62,2.08,1.13,1.37c-0.89-1.63,0.17,0.46-0.64-0.67c-0.5-0.7-0.16-0.64-0.01-0.69l-0.89-1.27
									c0.21-0.08,0.57,0.85,0.4,0.21l-1.31-1.47c0.24-0.62-1.47-1.56-1.6-2.58c0.96,1.04,0.07-0.21,0.35-0.14
									c-0.71-0.91-1.44-1.81-2.19-2.69c-0.15-0.3,0.71,0.6,0.35,0.21c-0.3-0.6-0.79-0.74-1.01-1.01c-0.07-0.34-1.7-1.95-1.37-2.12
									c-1.41-1.91-1.01-0.42-2.36-2.16c-0.04-0.36,1.24,1.23,0.73,0.36c-0.54-0.53-1.09-1.07-1.65-1.58
									c0.22,0.07,0.58,0.06,1.13,0.71c-2.05-2.32-3.56-4.2-5.12-5.96c-1.57-1.75-3.2-3.38-5.59-4.96c-0.5-0.69,0.58,0.2,1.14,0.42
									c-3.54-2.2-4.42-3.91-7.56-5.75l-0.16,0.15c-3.99-3.09-9.65-5.32-14.92-7.36l0.59,0.36c-0.81-0.05-2-0.43-2.91-0.6
									c-0.1-0.14,0.78-0.25-0.82-0.64c0.31,0.17,0.94,0.45,0.72,0.49c-2.23-0.97-5.88-2.12-10.05-2.78
									c-4.13-0.77-8.74-1.07-12.77-1.14c-5.44,0.17-11.11,0.75-16.61,1.97c-5.5,1.18-10.87,2.93-15.69,5.03
									c1.48-0.63,1.05,0.13-0.11,0.47c-3.35,0.44-5.14,2.37-8.45,3.33c-2.7,1.51-5.31,2.85-7.8,4.34
									c-2.48,1.49-4.85,3.11-6.89,5.2l-0.25-0.13c-0.76,0.45-0.83,0.73-1.5,1.34l-0.03-0.07c-1.73,1.3-3.45,3.29-4.42,4.06
									l0.15,0.26c-0.88,0.93-0.62,0.32-1.42,1.37l-0.08-0.13c-0.29,0.43-0.59,0.84-0.85,1.29c-0.27-0.45-2.46,2.64-3.23,3.32
									c-1.02,1.31-2.67,3.99-4.18,5.99c-0.23,0.12-0.76,0.84-1.37,1.72c-0.62,0.88-1.32,1.93-1.83,2.78
									c-1.9,3.34-4.08,8.37-5.74,12.93l0.34,0.02l-0.39,1.2c-0.06-0.04-0.15,0.11-0.12-0.08c-0.69,0.81-0.73,2.83-1.25,3.73
									c0.47-0.53,0.29-0.84,0.5-1.53c0.44-0.95,0.47,0.09-0.08,1.38l-0.06-0.05l-0.1,0.96c-0.27,0.04-0.59,0.85-0.87,0.89
									c-0.97,4.06-1.01,6.92-1.7,11.12c-0.24-0.47-0.29,3.04-0.68,2.14c-0.05,2.56,0.44-0.38,0.68,0.82
									c-0.07,0.71-0.01,1.46-0.2,1.57c-0.09-0.34-0.35,0.55-0.35-0.03c-0.05,0.57-0.06,1.13-0.09,1.7
									c-0.05,0.16-0.09-0.22-0.11-0.41c0.04,3.46-0.63,6.12-0.39,9.16c0.18,0.23,0.07-1.21,0.25-0.98
									c0.33,3.07-0.37,2.75-0.05,5.66l-0.26-0.6c0.19,0.94,0.41,1.35,0.29,2.91c-0.27,0.29-0.32-1.31-0.46-2.06
									c0.01,1.07,0.24,3.78,0.46,2.94c0.18,1.27-0.03,1.75-0.06,2.45c0.07,0.02,0.1-1.21,0.29-0.47
									c-0.04,1.75,0.27,4.43,0.56,6.54c-0.07-0.01-0.16,0.15-0.22-0.02C45.04,158.32,44.4,158.24,44.86,160.55z"/>
								<path class="st13" d="M102.14,254.41l-0.55-0.63c-0.05,0.04-0.13,0.07-0.44-0.16L102.14,254.41z"/>
								<path class="st13" d="M76.21,224.47c-0.08-0.07-0.16-0.14-0.24-0.19C76.1,224.43,76.17,224.47,76.21,224.47z"/>
								<path class="st13" d="M70.1,216.94c0.45,0.53,0.16-0.02,0.03-0.34C70.07,216.62,70.02,216.67,70.1,216.94z"/>
								<path class="st13" d="M118.41,269.74c-0.12-0.08-0.21-0.12-0.24-0.06C118.35,269.78,118.4,269.78,118.41,269.74z"/>
								<path class="st13" d="M162.73,312.55c-0.05-0.06-0.09-0.12-0.15-0.2C162.6,312.39,162.66,312.46,162.73,312.55z"/>
								<path class="st13" d="M160.57,309.87c-0.12-0.12-0.28-0.26-0.53-0.45C160.25,309.64,160.42,309.77,160.57,309.87z"/>
								<path class="st13" d="M107.76,259.23c-0.17-0.16-0.34-0.3-0.52-0.4C107.5,259.08,107.65,259.17,107.76,259.23z"/>
								<path class="st13" d="M159.48,308.98l-0.6-0.61c-0.02,0.01-0.03,0.01-0.05,0.03L159.48,308.98z"/>
								<path class="st13" d="M163.49,313.32c-0.24-0.24-0.57-0.55-0.76-0.77C162.99,312.9,163.23,313.13,163.49,313.32z"/>
								<path class="st13" d="M134.89,285.25c-0.02-0.02-0.04-0.04-0.07-0.06C134.25,284.82,134.59,285.07,134.89,285.25z"/>
								<path class="st13" d="M156.41,306.76c-0.02-0.03-0.05-0.06-0.08-0.09l-0.24-0.11L156.41,306.76z"/>
								<path class="st13" d="M166.11,315.95c-0.12-0.11-0.24-0.2-0.35-0.26c0.09,0.1,0.2,0.21,0.33,0.36
									C166.09,316,166.1,315.97,166.11,315.95z"/>
								<path class="st13" d="M143.9,294.49c0.25,0.09,0.37,0.1,0.41,0.06C144.1,294.36,143.93,294.27,143.9,294.49z"/>
							</g>
						</g>
					</g>
				</g>
			</g>
			<g>
				<g>
					<g>
						<g>
							<g>
								<path class="st23" d="M237.7,242.54c-0.01-0.08-0.02-0.16-0.04-0.25C237.68,242.43,237.69,242.51,237.7,242.54z"/>
								<path class="st23" d="M234.8,219.84l0.07,0.71C234.84,220.09,234.82,219.91,234.8,219.84z"/>
								<path class="st23" d="M249.69,215.02c-0.05,0.01-0.05,0.01-0.09,0.02c0.57-0.02,1.33-0.05,2.58-0.09L249.69,215.02z"/>
								<path class="st23" d="M222.75,178l0.08-0.82C222.79,177.55,222.76,177.79,222.75,178z"/>
								<path class="st23" d="M231.99,166.67c-0.04-0.24-0.07-0.64-0.1-1.04C231.91,166.13,231.94,166.53,231.99,166.67z"/>
								<path class="st23" d="M264.66,207.25l-0.54,0.87C264.15,208.13,264.38,207.78,264.66,207.25z"/>
								<path class="st23" d="M293.43,215.38c-0.03-0.01-0.04-0.01-0.1-0.02C293.28,215.37,293.34,215.38,293.43,215.38z"/>
								<path class="st23" d="M278.89,214.68c-0.31,0.01-0.68,0.01-1.05,0.02C278.29,214.7,278.85,214.72,278.89,214.68z"/>
								<path class="st23" d="M277.35,214.71c0.16,0,0.33-0.01,0.5-0.01C277.57,214.69,277.34,214.69,277.35,214.71z"/>
								<path class="st23" d="M90.64,214.01c-1.07,0-1.99,0.07-2.95,0.13L90.64,214.01z"/>
								<path class="st23" d="M168.29,214.21l0.23-0.04C168.3,214.18,168.26,214.2,168.29,214.21z"/>
								<path class="st23" d="M89.3,214.84l-0.76-0.02C88.82,214.84,89.07,214.84,89.3,214.84z"/>
								<path class="st23" d="M249.43,216.7c-1.07,0.14-3.28,0.11-3.26,0.2C247.3,216.84,248.92,216.85,249.43,216.7z"/>
								<path class="st23" d="M155.39,227.42l-0.06,0.71C155.35,227.79,155.37,227.58,155.39,227.42z"/>
								<path class="st23" d="M89.3,214.84l0.88,0.02c-0.08-0.01-0.17-0.03-0.27-0.05C89.72,214.83,89.52,214.84,89.3,214.84z"/>
								<path class="st23" d="M148.59,200.13c0,0.02,0,0.02,0,0.04c0.01,0.09,0.02,0.15,0.03,0.25L148.59,200.13z"/>
								<path class="st23" d="M148.38,193.6c0.04,0.46,0.07,0.9,0.11,1.39C148.45,194.25,148.42,193.86,148.38,193.6z"/>
								<path class="st23" d="M87.68,214.14L86,214.21C86.61,214.2,87.15,214.17,87.68,214.14z"/>
								<path class="st23" d="M141.71,135.27c0.03-0.05,0.06-0.09,0.08-0.15C141.75,135.15,141.73,135.2,141.71,135.27z"/>
								<path class="st23" d="M232.21,171.63c0,0.16,0.01,0.38,0.01,0.57C232.25,172.26,232.26,172.22,232.21,171.63z"/>
								<path class="st23" d="M228.01,153.86L228.01,153.86l0,0.02C228.01,153.88,228.01,153.86,228.01,153.86z"/>
								<path class="st23" d="M228.11,151.69c-0.04,0.22-0.09,1.37-0.1,2.17C228.05,153.5,228.07,153.04,228.11,151.69z"/>
								<path class="st23" d="M227.75,156.02c0.01-0.03,0.01-0.05,0.02-0.08C227.76,155.95,227.75,155.98,227.75,156.02z"/>
								<path class="st23" d="M229.48,169.82c0,0,0.01,0.01,0.01,0c0-0.01-0.01-0.02-0.01-0.03L229.48,169.82z"/>
								<path class="st23" d="M228.94,160.38c0.01-0.08,0.02-0.19,0.03-0.3C228.95,160.17,228.94,160.27,228.94,160.38z"/>
								<path class="st23" d="M226.04,175.94c0-0.01,0-0.01,0-0.01c0,0.02,0,0.03,0,0.05C226.03,175.97,226.04,175.95,226.04,175.94
									z"/>
								<path class="st23" d="M179.98,209.29c0.85,2.49,1.75,5.13,2.69,7.91c3.87,0.1,7.93,0.21,11.95,0.32
									c3.96,0.12,7.89,0.24,11.56,0.35c0.88-1.76,1.71-3.41,2.5-4.99c0.39-0.99,0.92-2.17,1.53-3.46
									c0.15-0.32,0.31-0.65,0.47-0.98c0.11-0.22,0.1-0.22,0.12-0.25l0.04-0.1c0.06-0.15,0.13-0.3,0.19-0.45
									c0.03,0.14,0.05,0.28,0.07,0.44l0.07-0.24c0.01,0.01,0.03,0.02,0.05,0.04c0,0.25-0.07-0.06-0.05,0.3
									c0.02-0.1,0.05-0.17,0.09-0.22c-0.02,0.1,0.03,0.29,0.04,0.39c-0.03-0.07,0.08,0.27,0.12,0.42
									c0.05,0.16,0.07,0.26,0.06,0.26c-0.01,0-0.06-0.09-0.15-0.31c-0.02-0.06-0.05-0.12-0.08-0.19
									c-0.01-0.04-0.03-0.07-0.05-0.11c-0.01-0.01-0.01-0.01-0.01-0.01c-0.01,0-0.02,0-0.03,0l2.48,7.43l4.37,0
									c0.24,0,0.44,0,0.61,0c0.2-0.01,0.37-0.01,0.51-0.02c0.5-0.01,0.83-0.03,1.13-0.05c0.6-0.04,1.04-0.08,2.36-0.09
									c0.04-0.42,0.1-0.96,0.17-1.65c0.17-0.92-0.12,1.73,0,1.43c0.16-1.53,0.31-2.9,0.44-4.15c0.07-0.75,0.13-1.42,0.17-2.04
									c0.09-1.25,0.13-2.3,0.16-3.33c0.07-2.07,0.13-4.08,0.52-7.49l-0.02,0.58c0.02-0.59,0.09-1.43,0.15-2.13
									c0.03-0.35,0.05-0.67,0.07-0.9c0.02-0.23,0.03-0.37,0.02-0.38c-0.34,0.85,0.02,1.24-0.34,3.31c-0.2-0.2,0.14-2.61-0.04-2.49
									c0.24-1.59,0.21-2.54,0.33-3.94c0.37-2.36,0.61-5.79,0.96-7.56c0.05-1.17-0.04-2.49,0.2-5c0.35-1.78,0.12,0.44,0.42-2
									l-0.09-0.4c0.22-2,0.22-1.68,0.27-1.6c0.22-2.14,0-1.8,0.35-4.48l-0.03,1.51c0.15-1.99,0.25-2.8,0.54-5.56
									c0.07,0.07-0.05,1.18-0.15,1.99c0.33-1.48,0.17-2.58,0.28-3.39c-0.08,0.23-0.29,2.14-0.32,1.19
									c0.16-1.37,0.12-2.94,0.36-3.9l-0.03,1.51c0.09-1.44,0.09-1.82,0.11-2.26c0.01-0.22,0.03-0.45,0.07-0.83
									c0.02-0.19,0.04-0.42,0.07-0.7c0.02-0.15,0.04-0.32,0.07-0.53c0,0.08,0.04,0.06,0.06,0.1c-0.04-0.46,0.02-1.04,0.09-1.57
									c0.07-0.54,0.16-1.01,0.22-1.6l0,0.37c0.02-0.63-0.01-1.48,0.03-1.75c-0.12,0.45-0.12,0.1-0.19-0.38
									c0.16-0.2,0.13-1.46,0.21-3.05c0.03-0.75,0.09-1.57,0.18-2.03c0.01,0.63-0.02,1.79-0.1,1.83c0,0.77,0.01,1.34,0.01,1.89
									c0.02,1.1,0.03,1.99,0.01,2.87c0.02-0.6,0.06-1.28,0.08-1.14c0.01,0.03,0.01,0.11,0.02,0.25l-0.05-1.49
									c0.04-0.36,0.07-0.64,0.1-0.91c-0.01-0.57-0.04-0.78-0.06-1c-0.02-0.23-0.04-0.49,0.01-1.39c0.12-1.85,0.1,1.07,0.1,0.1
									c0.15-2.33,0.06-2.72,0.23-3.8c-0.02,0.36-0.05,1.04-0.07,1c0.06-0.19,0.12-0.93,0.18-1.43c0.06-0.5,0.1-0.73,0.1,0.32
									c0,0.24,0,0.38-0.01,0.52c0,0.12-0.01,0.22-0.01,0.31c-0.02,0.7-0.04,1.35-0.07,1.42l0.01-0.47c-0.1,2.34,0,0.39,0.02,0.53
									c0,0.27,0,0.66-0.02,1.28c0.03-1.74,0.1-0.07,0.12,0.72l0.05-1.79c0.07-0.66,0.11-0.69,0.11-0.5
									c0.01,0.2-0.02,0.66-0.04,1.24c-0.05,1.17-0.13,2.84-0.07,3.34c0.11,0.21,0-0.79,0.09-1c0.03,0.92-0.01,1.96,0.04,2.62
									c0.01,0.06,0.02,0.16,0.03,0.26c-0.02,0.67-0.05,1.62-0.17,2.41c0.04,0.05,0.04,0.47,0.05,0.77
									c0.01,0.31,0.03,0.54,0.11,0.53c0.04-0.56-0.01-0.71-0.05-0.81c-0.04-0.13-0.07-0.16-0.02-1.16
									c0.04-0.17,0.09-0.31,0.14-0.42c0.02,0.46,0.06,0.89,0.1,1.35c0.04,0.45,0.07,0.92,0.06,1.27c0.02-0.16,0.06-0.28,0.09-0.23
									c0.04,0.36,0.08,0.66,0.11,0.92c0.06,0.57,0.11,1.07,0.16,1.57c0.1,1.08,0.19,2.14,0.26,3.79c-0.12,0.44-0.2-1.49-0.3-2.89
									c0,2.13,0.12,2.22,0.25,5.52c-0.12,0.18-0.12-2.22-0.26-2.59l0.24,3.65c-0.01-0.01-0.02,0-0.03,0
									c0.24,0.52,0.14,2.78,0.32,5.01c0.29,5.29,0.63,6.08,0.96,9c-0.01,0.79-0.06,1.03-0.13,0.7c0.02-1.3-0.04-1.07-0.12-1.52
									c0.12,1.78,0.01,3.92-0.13,2.93c0.22,2.83,0.06-1.03,0.22,0.7l0.2,3.89c0.08-0.47,0.03-1.83,0.23,0.17
									c0.12,1.69,0.15,2.51,0.26,4.73c-0.07-0.32-0.13,0.71-0.21-0.96c0.02,1.07,0.11,2.75,0.25,3.39
									c-0.04-2.43,0.32,3.97,0.38,2.15l0.04,2.43c-0.03-0.55-0.1-0.61-0.13-1.43c-0.13,0.7,0.16,1.98,0.22,2.83
									c0.02,0.86,0.12,3.07,0.07,3.26c0.09,0.76,0.16,2.64,0.09,3c0.1,1.14,0.11,0.09,0.19,0.41l0.2,3.88
									c-0.08,0.21-0.32,0.55-0.38-0.03c0.17,1.46,0.3,0.51,0.41,2.73c-0.25-1.26,0.03,2.94-0.29,1.11
									c-0.06,1.28,0.15,4.9,0.31,6.89c0.21,1.23-0.04-2.16,0.11-2.04c0.36,5.6,0.78,5.92,0.94,10.04l-0.02-1.07
									c0.22,2.56,0.19,2.28,0.4,3.76c-0.11-0.35-0.19,0.38-0.21,1.73c0,0.34,0,0.71,0,1.12c0,0.2,0.01,0.41,0.01,0.63
									c0.01,0.3,0.02,0.61,0.03,0.92c0.05,1.38,0.13,2.94,0.22,4.5c0.06,0.19,0.05-0.77,0.05-1.62c0-0.86,0.02-1.59,0.11-1.19
									l0.23,3.73c0,0.3-0.05-0.04-0.09-0.49c0.12,1.64,0.16,3.38,0.2,4.86c0.04,1.47,0.09,2.63,0.19,2.65l0.01,4.17l0.02,0.46
									l-0.02-0.48l0-1.22c0.02,0.01,0.05,0.22,0.08,0.56c0.14,0.26,0.33,1.24,0.39,1.41c0.34,1.43,0.39,2.49,0.55,3.54
									c-0.05-0.36-0.12-1.6,0.1-0.05c-0.03,0.21,0.1,1.04,0.23,1.79c0.16-0.68,0.31-1.33,0.31-1.23c0.13-0.56,0.38-1.25,0.38-1.59
									l0,0.51c0-0.65,0.48-2.71,0.83-4.54c0.01,0.91,0.08,0.72,0.18,0.29c0.17-1.4,0.38-3.5,0.58-3.69
									c-0.01-0.86,0.17-2.55,0.36-4.19c0.18-1.64,0.37-3.25,0.33-3.74c0.31-2.64,0.47-2.15,0.63-2.82l0.08-1.39
									c0.03-0.18,0.07-0.41,0.12-0.7c0.03-0.21,0.07-0.45,0.12-0.72c0.08-0.51,0.17-1.13,0.27-1.78c0.19-1.31,0.4-2.76,0.56-3.85
									l0.05-2.05l0.19-0.74c-0.01-0.33,0.17-2.02-0.04-0.98l0.15-1.09c-0.21-0.12,0.13-1.54,0.3-3.75c0.1-0.5,0.13-0.36,0.11,0.12
									c0.14-1.09,0.19-0.61,0.34-1.2c-0.15,0.77,0.09-3.99-0.38-1.05c-0.12,0.19,0.03-1.54,0.2-2.61l0.28-0.63l-0.05-1.32
									c0.09-0.84,0.17-1.25,0.26-1.71c0.45,0.01,0.85,0.03,1.33,0.02c-0.54,0.03-1.05,0.15-1.05,0.24
									c-0.01,0.05,0.09,0.09,0.31,0.12c0.11,0.01,0.25,0.02,0.42,0.02c0.2,0,0.29,0,0.82-0.02c-0.54,0.03-0.64,0.04-0.86,0.07
									c-0.18,0.03-0.34,0.05-0.49,0.07c0,0.34-0.01,0.61-0.01,0.88c0.05-0.37,0.09-0.49,0.11,0.04c0.03-0.48,0.03-0.68,0.02-0.78
									c0.08-0.02,0.11-0.04,0.22-0.05c0.06-0.01,0.14-0.02,0.25-0.03c0.16-0.01,0.36-0.02,0.63-0.04
									c-0.15,0.19,0.64,0.21,3.09,0.18l-1.84-0.06c0.09-0.03,0.21-0.05,0.35-0.06c-0.7,0.01-0.89-0.01-1.04-0.08
									c0.55-0.02,3.24-0.35,3.71-0.26c-2.83-0.17,4.91-0.41,3.11-0.51c0.32-0.07,2.28-0.15,2.48-0.07
									c-2.34,0.23,1.77,0.14,1.4,0.28c0.87-0.09-1.85-0.06-0.67-0.18c1.4-0.07,2.42,0,3.21,0.03l-0.58,0.06l2.48-0.02
									c0.24-0.05-0.53-0.06-0.98-0.08c-0.17-0.01-0.27-0.02-0.22-0.04c0.03-0.01,0.09-0.02,0.23-0.03
									c0.17-0.01,0.42-0.03,0.76-0.05c0.19,0,0.52-0.01,0.91-0.02c0.24-0.48,0.53-1.04,0.75-1.49c0.17-0.34,0.29-0.55,0.31-0.52
									c-0.16,0.45-0.1,0.5-0.16,0.75c-0.05,0.23-0.16,0.56-0.66,1.61c-0.05,0-0.15,0.01-0.24,0.01c0.07,0,0.14-0.01,0.24-0.01
									c0.24-0.5,0.59-1.21,0.96-1.96c0.25-0.52,0.51-1.07,0.73-1.52c0.43-0.92,0.65-1.47,0.19-0.73l0.76-1.5
									c-0.54,0.91-1.98,3.48-0.5,0.46l0.02,0.04l0.93-2.16l0.54-0.87c-0.03,0-0.01-0.08,0.07-0.27c0.04-0.09,0.09-0.21,0.15-0.35
									c0.06-0.12,0.13-0.27,0.21-0.44c0.12-0.12,0.37-0.58,0.4-0.47c0.49-1,0.6-1.33,0.66-1.54c0.04,0.02,0.05,0.01,0.09,0.04
									c0.55,0.81,0.73,1.14,0.46,0.92c0.42,0.63,0.99,1.5,1.52,2.32c0.68,1.04,1.32,2.03,1.64,2.6c1.5,2.1-0.26-0.46,0.68,0.72
									c0.18,0.38,0.46,0.86,0.8,1.43c0.17,0.28,0.36,0.58,0.56,0.9c0.28,0.43,0.58,0.89,0.89,1.37c0.84,0.02,1.72,0.04,2.64,0.06
									c0.75,0.01,1.53,0.02,2.3,0.02c1.54,0.01,3.07,0.02,4.39,0.04c-1.14-0.3,1.15-0.01,1.93-0.24c-0.91,0.07,3.99,0.3,0.3,0.3
									l2.25,0.02c1.53,0.19-3.72,0.03-1.4,0.29c2.52,0.05,4.18-0.22,7.15-0.05c-1,0.17,2.29-0.01,1.54,0.18
									c-0.62,0.06-1.44,0.02-2.28,0.01l0.52,0.05c5.53,0.18,1.6-0.19,4.5-0.26c3.37,0.05,2.65,0.21,2.85,0.31
									c0.52,0.05,2.22,0.06,3.11,0.03c-2.06,0.07-3.8-0.21-2.85-0.31c1.48,0.26,5,0.13,5.92,0.06c-4.8-0.34-3.33-0.09-7.85-0.44
									c-0.62,0.06-0.52,0.26-3.23,0.12c1.7-0.06-0.11-0.11-0.59-0.16c0.52,0.13-1.88,0.01-2.71,0.04
									c-0.75-0.11,1.63-0.23-1.12-0.34l-0.52,0.26c-1.07-0.06,0.46-0.19-1.83-0.17c1.24-0.11-0.37-0.23,2.73-0.2
									c-3.69-0.31-5.67,0-8.55,0.03c0.29-0.01,0.33-0.05,0.62-0.06c-0.62,0.06-1.73,0.03-2.58,0.03c-1.89-0.1,1.5-0.09,1.01-0.17
									l-3.07-0.06c-0.06-0.01-0.08-0.02-0.08-0.02c-0.81,0.02-1.58,0.03-1.86-0.05c0.91-0.07,1.28-0.15,1.89-0.21l-3.23,0.12
									c0.18-0.04-0.5-0.09-0.89-0.14c-0.4-0.04-0.53-0.08,0.53-0.09l-0.99-0.01l-2.03-2.99l-0.07-0.44
									c-0.66-0.93-0.71-0.94,0.03,0.21c-0.88-1.39-4.25-5.8-3.56-5.42c-0.65-0.92-1.19-1.68-1.68-2.36
									c-0.94,1.94-1.67,3.45-3.15,6.52c1.41-3.19-1.98,3.48-0.4,0.14c-1.04,1.9-1.06,2.39-1.8,3.93
									c-0.36,0.64-0.48,0.73-0.46,0.54c0.01-0.09,0.06-0.26,0.13-0.47c0.07-0.21,0.24-0.59,0.41-0.97l-0.72,1.63l-0.01-0.06
									l-0.05,0.13l-1.29,0.14c-1.87-0.02-0.4-0.17-2.33-0.11l-0.41,0.18l-1.31-0.04c0.49,0.05-0.65,0.13-2.05,0.2l0.03-0.04
									l-1.7,0.1c1.68-0.17-1.56,0.03-0.79-0.12c-1.46,0.05-1.49,0.05-4.12,0.19l0.47,0.09c-1.71,0.12-1.75,0.08-1.71,0.02
									c0.02-0.03,0.06-0.06-0.07-0.08c-0.07-0.01-0.18-0.02-0.36-0.02c-0.22,0.01-0.52,0.01-0.93,0.02l0.25,0.12
									c-0.64,0.01-1.26,0.01-1.86,0.02c-0.07,0.51-0.13,1-0.2,1.48c-0.05,0.43-0.1,0.86-0.15,1.27c-0.07,0.72-0.14,1.41-0.21,2.08
									c-0.13,1.34-0.25,2.59-0.47,3.86c0.18-1.69-0.02-1.28,0.01-1.24c-0.27,2.53-0.81,6.65-0.98,9.29
									c-0.3,0.93-0.38,1.15-0.8,3.83c-0.23,1.96-0.25,2.24-0.22,2.9c-0.05,0.37-0.12,0.81-0.18,1.28c-0.05,0.4-0.1,0.81-0.15,1.19
									c-0.09,0.76-0.17,1.35-0.22,1.21c0.04,0.58-0.14,1-0.18,1.99l-0.05-0.07l0.08,0.38c-0.18,0.51-0.26,1.24-0.35,2.23
									c-0.06,0.7-0.13,1.38-0.19,2.1c-0.07,0.65-0.15,1.21-0.23,1.27l0.05-0.65l-0.11,1.34c-0.01-0.33,0.03-1,0.04-1.64
									l-0.42,3.25l-0.02-0.4l0,0.91l0.03,0.13c-0.02,0.2-0.04,0.38-0.05,0.56c-0.05-0.27-0.12-0.12-0.14-1.64
									c0.18-0.19-0.08-1.48-0.01-3l0.07,0.37c-0.07-0.97-0.07-0.98-0.13,0.16c-0.06-0.61-0.04-1.35-0.02-1.93
									c0.02-0.6,0.03-1.03-0.05-1.24l0.05,0.98c-0.03,0.83-0.13,0.83-0.17,0.05c0-0.3,0.01-1.12,0.05-0.69
									c-0.01-0.15-0.03-0.32-0.04-0.49c-0.08-1.09-0.12-2.65-0.18-2.96c0-0.8,0.08-0.81,0.13-0.62c-0.11-1.01-0.12-1.34-0.13-1.61
									c-0.01-0.3-0.02-0.53-0.14-1.75l0.07,0.02c-0.04-0.17-0.1-0.78-0.16-1.24l0.04-2.1l-0.05,0.76
									c-0.09-1.4-0.19-2.28-0.24-3.91l0.14,0.65c-0.28-3.95-0.08-4.59-0.44-8.34c0.01-0.26,0.07,0.32,0.11,0.62
									c-0.36-3.48,0.04-2.64-0.36-6.14c0.05,0.21,0.07-0.17,0.11-0.04l-0.16-1.59l0.15,0.12l-0.29-1.29l0.09-0.99l-0.1-0.62
									c0.18-1.72-0.16-4.12-0.08-6.46l-0.16,0.41c-0.71-5.87-0.54-13.46-1.11-20.56l0.15,0.12l-0.33-2.92
									c0.03-1.58,0.18,0.94,0.22,0.44c-0.25-3.13-0.29-1.3-0.53-4.94c-0.01-1.87,0.14,0.64,0.24,1.52
									c-0.26-3.41-0.62-8.46-0.68-10.88c-0.02-0.05-0.06-0.2-0.06-0.08c-0.19-2.28-0.29-5.29-0.44-7.8
									c0.07,0.06,0.12,0.68,0.16,1.31c-0.04-0.9-0.06-2.14-0.18-2.91l0.18,0.94c-0.07-1.09-0.16-2.67-0.24-4.05
									c-0.12-2.04-0.21-3.76-0.16-4.25c-0.03,0.48-0.14,0.46-0.28-2.25c0.05-1-0.07-2.9-0.23-5c-0.15-2.13-0.33-4.39-0.41-6.91
									c0.06,0.21,0.26,3.45,0.21,2.51c-0.07-2.26-0.23-3.71-0.37-4.98c-0.02,0-0.04,0.01-0.06,0l0.1-0.44
									c-0.28-0.44-0.54-1-0.8-1.68c-0.02-0.58-0.2-1.02-0.36-1.45c-0.16-0.43-0.29-0.84-0.26-0.83c-0.14-0.37-0.08-0.21-0.03-0.05
									c0.05,0.16,0.08,0.33-0.09-0.21c-0.03-0.09-0.06-0.2-0.09-0.32c-0.11,0.29-0.22,0.67-0.22,0.54l0.04-0.11l-0.27,0.67
									c0.05-0.22,0.11-0.41,0.16-0.57c-0.24,0.46-0.39,1.18-0.38,1.52c-0.22,0.4-0.51,1.52-0.64,1.19l0.07-0.35
									c-0.22,0.63-0.43,0.88-0.63,0.88c-0.22,1.77-0.43,3.42-0.63,5.05c-0.2,1.78-0.39,3.76-0.53,5.99
									c-0.06,0.39-0.08,0.22,0.02-0.75l-0.49,4.9l0.04-1.45l-0.67,8.45l-0.06-0.13c-0.16,1.63-0.37,3.73-0.59,5.94
									c-0.19,2.05-0.39,4.21-0.58,6.16l0.02-0.59c-0.31,4.27-0.48,4.1-0.71,7.22c-0.01-0.11-0.01-0.22,0-0.33l-0.27,2.8
									l-0.01-0.63c-0.05,2.09-0.79,5.91-0.53,4.64c-0.05,1.18-0.17,3.21-0.11,3.57c-0.3,3.06-0.17,0.74-0.42,2.62
									c-0.23,2.21-0.14,2.61-0.5,5.6l-0.07-0.07c-0.11,1.4-0.18,2.28-0.34,4.23l0.02-0.58c-0.16,3.2-0.61,3.95-0.54,6.48
									c-0.19,1.33-0.4,3.87-0.53,3.73c-0.02,0.29-0.04,0.58-0.07,0.86l-0.03,0.42c-0.01,0.11,0,0.07,0,0.12c0,0.11,0,0.21,0,0.31
									c-0.09,0.01-0.19,0.02-0.28,0.03l-0.07,0.01l-0.29,0.01l-0.71,0.01c-0.46,0.01-0.92,0.01-1.38,0.02
									c-0.11,0.01-0.23,0.01-0.35,0.02c-0.03-0.07-0.06-0.14-0.09-0.21l-0.05-0.12c-0.06-0.17-0.12-0.34-0.18-0.51
									c0.02-0.68-0.28-0.8-0.91-3.12l-0.06,0.21c-1.01-3.1-2.06-6.35-3.15-9.71c-1.48,2.87-3,5.82-4.53,8.77
									c-0.93,1.77-1.84,3.56-2.72,5.34l-0.19,0.1l-0.21,0.58l-0.11,0.29c-0.01,0.04-0.05,0.12-0.04,0.13l0.01,0.03
									c-0.03,0.05-0.05,0.09-0.08,0.14c-6.05-0.24-13.5-0.54-18.19-0.73c-0.08,0-0.08,0-0.08,0l-0.02,0.01l-0.04,0.01
									c-0.03,0.01-0.07,0.02-0.11,0.03c-0.03-0.03-0.06-0.07-0.09-0.12c0.01,0.06-0.11-0.29-0.18-0.47
									c-0.08-0.22-0.16-0.43-0.24-0.66c-0.32-0.89-0.65-1.84-0.95-2.81l0.11,0.27c-1.01-2.97-2.05-6.01-3.12-9.11
									c-1.39,2.23-2.8,4.5-4.23,6.8c-0.81,1.27-1.62,2.55-2.45,3.85c0.13-0.3-0.18,0.12,0.1-0.4c-0.27,0.56-0.67,1.22-1.09,1.84
									c-0.35,0.52-0.69,1.04-0.95,1.42l0.04-0.02c0.01,0,0.11-0.15,0.17-0.22l0.39-0.53c-0.08,0.14-0.15,0.28-0.23,0.43
									c-0.07,0.13-0.15,0.26-0.22,0.39c-0.03,0.06-0.07,0.13-0.11,0.18c-0.05,0-0.1-0.01-0.15-0.02
									c-0.08-0.01,0.01-0.02-0.27-0.03c-0.4-0.02-0.73-0.05-0.95-0.08l-2.36,0.14c-0.15-0.01-0.39-0.03-0.43-0.05l-0.42,0.07
									l-1.25-0.17c-0.58,0.03-3.7,0.08-4.67,0.24c-0.23-0.06-2.42-0.1-0.72-0.13l-8.19-0.04l-0.34,3.59l0.28-2.34
									c0.08-0.12,0.02,1.06-0.07,2.33c-0.04,0.79-0.13,1.77-0.22,2.43c0.06-1.75-0.17-0.16-0.33,0.58c-0.04,1.17,0.21-1,0.22-0.38
									c-0.05,1.47-0.29,4.57-0.42,5.34l0.03-0.88c-0.14,1.99-0.44,2.89-0.61,4.84c-0.06,1.77-0.27,3.06-0.02,2.71
									c-0.19,2.55-0.24,0.97-0.34,1.79c0,0.08,0,0.16-0.01,0.25c0,0.05,0.01,0.04,0.01,0.07c0,0.04,0.01,0.09,0,0.14
									c0,0.1-0.02,0.21-0.03,0.31c-0.04,0.19-0.09,0.27-0.13,0.15c0.12,0.49,0.05,0.84,0.01,0.96c-0.05,0.15-0.08,0.08-0.03,0.95
									c-0.03-0.14-0.06-0.31-0.08-0.52l-0.01-0.11c0.03,0.51,0.08,1.7,0.04,2.41c-0.06-0.23-0.07-1.44-0.09-2.01l0.03,2.64
									c-0.08-0.1-0.12-0.06-0.17,0.18c-0.03-0.98-0.07-2.01-0.1-3.02c-0.01-0.57-0.01-1.17,0.03-1.61
									c-0.02-0.09-0.04-0.19-0.07-0.29l-0.04-0.23c-0.04-0.61-0.09-1.23-0.13-1.85c-0.18-2.64-0.35-5.37-0.48-8l0.07,0.58
									l-0.22-5.23l0.09,3.8c-0.09-1.14-0.2-2.02-0.25-3.13c-0.21-5.74-0.5-13.4-1.03-20.46c-0.56-4.55,0.1-3.05-0.37-7.42
									c0.05,0.37,0.1,0.51,0.15,0.84c-0.37-4.71-0.56-7.27-1.01-11.98c0.34,0.53-0.18-3.07,0.01-2.66l-0.15-0.39
									c0.02-1.05-0.09-3.53,0.02-3.18l-0.27-2.08l0.12-0.19c-0.14-2.76-0.58-8.69-0.4-10.16c-0.53-7.52-1.09-17.1-1.65-27.22
									c-0.51-0.59-1.03-1.24-1.51-1.69c-0.1,0.01-0.25-0.14-0.4-0.34c-0.12,0.15-0.24,0.32-0.36,0.46c-0.1,0.05-0.2,0.05-0.3,0
									c-0.13,0.15-0.26,0.45-0.39,0.77c-0.13,0.31-0.25,0.64-0.39,0.55c0-0.09,0-0.17,0.02-0.24c-0.18,0.33-0.37,0.34-0.54,0.7
									c-0.09,1.17-0.18,2.39-0.25,3.71c-0.18,1.97-0.36,3.82-0.5,4.98c-0.14,1.15-0.24,1.62-0.22,0.66
									c0.06,0.78-0.13,2.88-0.35,4.9c-0.23,2.02-0.46,4.01-0.46,4.01s-0.87,9.61-2.21,24.35c-1.08,12.24-2.54,28.75-4.05,45.8
									l4.17,0.18c-0.01-3.79-0.01-7.61-0.02-11.43c-1.53,0-3.06,0-4.59,0.01l-1.15,0l-0.02,0c-2.91-6.61-5.78-13.15-8.55-19.44
									c-1.87,4.36-3.69,8.61-5.46,12.73c-0.59,1.39-1.17,2.76-1.73,4.1c-0.28,0.67-0.56,1.34-0.84,1.99l-0.21,0.49l-0.08,0.2
									l-0.01,0.03l-0.05,0.14c-4.94,0.09-9.45,0.18-13.35,0.25c-4.25,0.1-7.84,0.22-10.59,0.35c-0.93,0.12-3.52,0.21-2.53,0.35
									c-2,0.05-2.92-0.17-3.3-0.05c2.72,0.08-0.84,0.32,1.81,0.48l-1.71,0.03c-0.35,0.09,2.32-0.1,1.9,0.06l0.48-0.23
									c1.38,0.04,2.14,0.08,2.63,0.16c1.3-0.09,2.13-0.41,5.23-0.27l-0.86,0.01c2.52-0.01,1.55,0.15,2.07,0.19l-0.56,0l2.13,0.12
									c-1.61-0.08-4.27,0.11-2.88,0.1c3.01,0.07-0.78-0.06,1.48-0.09c1.4-0.01,1.01,0.11,0.95,0.18l2.52-0.01
									c-0.09,0.11-1.67-0.01-0.65,0.11l3.17-0.11c0.59,0.27,3.45-0.13,4.9,0.13c-2.28,0.06,0.2,0.09-0.16,0.18l5.59-0.02
									c0.53,0.04-1.47,0.08-0.62,0.07c1.06,0.08,1.72-0.07,2.3-0.06c0.17,0.02,0.69,0.03,1.34,0.04c0.56-1.25,1.21-2.74,1.28-2.59
									c1.62-3.43,0.42-1.55,1.93-4.75c0.29-0.38-1.09,2.58-0.36,1.19l1.42-3.38c-0.08,0.33-0.12,0.73-0.69,1.98
									c0.39-0.86,0.77-1.68,1.13-2.47c0.36-0.77,0.71-1.51,1.04-2.22c0.52-1.06,0.96-1.93,1.34-2.65
									c0.28,0.75,0.54,1.48,0.81,2.21l0.17,0.48l0.23,0.61c0.21,0.53,0.43,1.07,0.65,1.61c0.88,2.16,1.83,4.42,2.99,6.96
									c0.39,1.22-0.45-0.81-0.89-1.61c0.45,0.97,0.85,1.85,1.2,2.67c0.46,1.08,0.87,2.06,1.26,2.99c0.7,0.01,1.38,0.03,2.05,0.04
									c0.44,0.02,0.87,0.03,1.29,0.05c0.53,0.02,0.51,0.04,0.69,0.05c0.13,0.02,0.27,0.03,0.4,0.05c-0.02,0.23-0.04,0.46-0.06,0.7
									c-0.01,0.72-0.01,1.48-0.02,2.3l0.11,0.1c-0.07,1.56-0.11,3.19-0.14,4.88l3,0.13c0.7-6.61,1.24-13.99,1.96-20.99l-0.17,1.04
									c0-1.21,0.16-3.16,0.24-4.61c0.07-0.22,0.14,1.06,0.32-1.49c-0.08,0.52-0.22,1.59-0.24,1.27c0.94-7.51,2.26-23.4,3.47-35.77
									c0.05-0.68,0.11-1.36,0.16-2.05c0.04-0.37,0.07-0.74,0.11-1.12c0.07-0.63,0.13-1.08,0.17-1.4c0.03,0.68,0.05,1.35,0.08,2.01
									c0.02,0.22,0.03,0.43,0.05,0.65c-0.01-0.11,0.03-0.46,0.08-0.7c0.04-0.24,0.09-0.29,0.08,0.03
									c-0.08,0.68-0.11,0.93-0.12,1.11c-0.01,0.17,0.01,0.26,0.04,0.4l0.01,0.05l0.03,0.41l0.06,0.85
									c0.04,0.57,0.07,1.15,0.11,1.74c0.07,1.18,0.11,2.41,0.11,3.74c0.68,9.59,0.77,18.17,1.61,27.08l-0.12,0.18
									c0.02,1.34,0.13,1.69,0.22,3.09l-0.04-0.03c0.14,3.31,0.49,7.3,0.53,9.21l0.15,0.11c0.12,1.96-0.05,1.03,0.14,3.04
									l-0.08-0.05l0.27,2.34c-0.27-0.21,0.29,5.55,0.26,7.12c0.19,2.54,0.57,7.36,0.73,11.22c-0.02,0.18-0.02,0.61-0.01,1.21
									c0.05,1.06,0.11,2.41,0.17,3.89c0.16,3.2,0.34,6.96,0.48,9.89c0.22,3.85,0.48,8.26,0.78,13.45
									c0.61,0.26,1.31,0.83,1.97,1.27l0.08-0.04c-0.01-0.01-0.01-0.03-0.02-0.03l0.27-0.33c0,0.05,0.04,0.03,0,0.09
									c0.11,0.01,0.27-0.06,0.43-0.25c0.16-0.17,0.31-0.46,0.43-0.31c-0.17-0.46-0.2,0.09-0.36,0.18
									c-0.12-0.02-0.13-0.14-0.07-0.33c0.06-0.18,0.18-0.46,0.33-0.52l0,0.15c0.06-0.2,0.12-0.41,0.18-0.65
									c0.05,0.53,0.26,0.64,0.32,1.33c0.15-0.1,0.3-0.23,0.42-0.39c0.41-4.87,0.77-9.26,1.15-13.8c0.19-2.15,0.37-4.34,0.57-6.63
									c0.2-2.16,0.41-4.43,0.64-6.87c0.08,0.69,0.4-4.75,0.53-3.4c0.27-3.98-0.26,0.64-0.27-1.19c0.11-1.11,0.15-2.28,0.26-2.47
									c0.01,0.53,0.23-0.89,0.17,0.02l0.23-2.65c0.04-0.25,0.02,0.34,0.01,0.63c0.11-1.72,0.26-3.31,0.42-4.84
									c0.08-0.76,0.16-1.51,0.24-2.25l0.03-0.28c0.01-0.06,0.01-0.03,0.01-0.05l0.01-0.06l0.03-0.1l0.13,0.01l0.06,0l0.63,0
									c0.85,0,1.72-0.01,2.61-0.04c0.36-0.09-1.93-0.03-1.58-0.12c4.9-0.18,4.33,0.16,8.89,0.03l-0.95,0.12
									c1.48-0.09,2.12-0.19,4.54-0.09c0.42,0.15-2.06,0.12-3.23,0.19c1.67,0.01,5.88-0.03,4.6-0.16c0.9,0,1.65,0,2.31-0.01
									c0.28-0.43,0.53-0.81,0.75-1.16c0.22-0.34,0.49-0.73,0.56-0.82c0.23-0.32,0.43-0.61,0.67-0.94
									c-0.01-0.05-1.07,1.53-0.51,0.5c0.75-1.13,1.69-2.58,2.65-4.11c0.44-0.69,0.88-1.4,1.32-2.09c0.05-0.07,0.1-0.14,0.14-0.21
									c0,0.06,0.02,0.15,0.01,0.19c0.01-0.11,0.04-0.19,0.06-0.2C180.06,209.08,179.97,209.35,179.98,209.29z"/>
								<path class="st23" d="M229.54,171.16l-0.05-1.34c-0.03,0-0.07-0.06-0.14-0.67L229.54,171.16z"/>
								<path class="st23" d="M227.41,160.57c0,0.07,0.01,0.14,0.02,0.2C227.44,160.64,227.43,160.59,227.41,160.57z"/>
								<path class="st23" d="M226.19,175.53c0.08-1.1-0.06-0.13-0.15,0.41C226.06,175.97,226.1,175.95,226.19,175.53z"/>
								<path class="st23" d="M231.93,207.1c-0.03-0.23-0.05-0.37-0.08-0.33C231.89,207.07,231.91,207.14,231.93,207.1z"/>
								<path class="st23" d="M242.41,219.42c-0.02,0.12-0.04,0.24-0.07,0.39C242.36,219.74,242.38,219.6,242.41,219.42z"/>
								<path class="st23" d="M241.51,224.87c-0.03,0.27-0.06,0.62-0.12,1.12C241.46,225.5,241.49,225.15,241.51,224.87z"/>
								<path class="st23" d="M230.53,183.01c-0.03-0.37-0.06-0.73-0.1-1.04C230.46,182.54,230.5,182.82,230.53,183.01z"/>
								<path class="st23" d="M241.28,227.13l-0.18,1.38c0.01,0.01,0.01,0.03,0.03,0.03L241.28,227.13z"/>
								<path class="st23" d="M242.63,217.76c-0.07,0.52-0.16,1.21-0.22,1.66c0.06-0.34,0.11-0.65,0.15-0.93
									c0.02-0.14,0.03-0.28,0.05-0.41C242.62,217.95,242.63,217.8,242.63,217.76z"/>
								<path class="st23" d="M234.24,245.11c0-0.06-0.01-0.12-0.01-0.2C234.08,243.54,234.16,244.43,234.24,245.11z"/>
								<path class="st23" d="M240.79,233.19c-0.01,0.06-0.02,0.12-0.03,0.18l-0.01,0.41L240.79,233.19z"/>
								<path class="st23" d="M246.17,216.9c-0.26,0.01-0.5,0.03-0.69,0.05c0.22,0,0.47-0.01,0.79-0.01
									C246.19,216.92,246.17,216.91,246.17,216.9z"/>
								<path class="st23" d="M236.24,262c0.06-0.25,0.08-0.38,0.08-0.42C236.24,261.85,236.2,262.03,236.24,262z"/>
							</g>
						</g>
					</g>
				</g>
			</g>
		</g>
	</g>
</g>
</svg>
